<?xml version="1.0" encoding="UTF-8"?>
<svg width="70px" height="124px" viewBox="0 0 70 124" version="1.1" xmlns="http://www.w3.org/2000/svg" xmlns:xlink="http://www.w3.org/1999/xlink">
    <title>0EE6F941-2E06-44E3-B4C2-436C4C5E34F8</title>
    <defs>
        <filter id="filter-1">
            <feColorMatrix in="SourceGraphic" type="matrix" values="0 0 0 0 1.000000 0 0 0 0 1.000000 0 0 0 0 1.000000 0 0 0 1.000000 0"></feColorMatrix>
        </filter>
    </defs>
    <g id="Page-1" stroke="none" stroke-width="1" fill="none" fill-rule="evenodd">
        <g id="Text-Fields---OK" transform="translate(-665.000000, -183.000000)">
            <g id="Group-4" transform="translate(-63.000000, -47.000000)">
                <g id="Group-32" transform="translate(763.000000, 292.000000) rotate(-180.000000) translate(-763.000000, -292.000000) translate(728.000000, 230.000000)">
                    <path d="M59.5993325,10.4819207 C54.6113189,8.97701715 52.3334709,12.3280789 52.3334709,12.3280789 C52.3334709,12.3280789 51.0966584,1.86669797 44.6034847,0.328323806 C36.5775482,-1.57313358 34.1284183,5.40512226 34.1284183,5.40512226 C34.1284183,5.40512226 31.6789228,-1.57313358 23.6531692,0.328323806 C17.1601782,1.86669797 15.9233658,12.3280789 15.9233658,12.3280789 C15.9233658,12.3280789 13.645335,8.97701715 8.65732133,10.4819207 C3.61775858,12.0022862 1.92870349,24.3378387 1.54592412,30.7889326 C1.12402595,37.8963413 0,124 0,124 L70,124 C70,124 67.1326279,37.8963413 66.7107297,30.7889326 C66.3277676,24.3378387 64.6390781,12.0022862 59.5993325,10.4819207 Z" id="Fill-1" fill="#492F82"></path>
                    <g filter="url(#filter-1)" id="Group-13">
                        <g transform="translate(6.000000, 4.000000)">
                            <path d="M28.3885131,21.7302686 C18.0848077,21.7302686 8.59453356,29.5591682 14.0176516,34.9586097 C19.4404048,40.3578696 22.6390375,33.3388499 28.659596,33.3388499 C34.3536146,33.3388499 37.3364389,39.0080092 42.2170263,35.7684896 C47.097796,32.52897 40.0478155,21.7302686 28.3885131,21.7302686" id="Fill-3" fill="#874538"></path>
                            <path d="M3.22692732,10.4758804 C0.43491906,10.7248926 -0.266503467,13.7152184 0.0828396123,16.7522226 C0.432182691,19.7892268 2.17889809,21.8138358 4.10037623,21.6113204 C6.02167195,21.4089866 7.59380702,18.5743162 7.4192267,15.3349782 C7.24446394,12.0954586 5.49774855,10.273365 3.22692732,10.4758804" id="Fill-5" fill="#874538"></path>
                            <path d="M19.3517282,11.1508651 C21.2732064,10.9483497 22.845159,8.11386086 22.6703962,4.87452288 C22.4958159,1.63500328 20.7491005,-0.187090274 18.4782793,0.0152434797 C15.686271,0.264255667 14.9848485,3.25476308 15.3341916,6.2917673 C15.6835347,9.3285899 17.4302501,11.3533805 19.3517282,11.1508651" id="Fill-7" fill="#874538"></path>
                            <path d="M36.2299061,11.1508651 C38.1512019,10.9483497 39.7233369,8.11386086 39.5487566,4.87452288 C39.3739939,1.63500328 37.6272785,-0.187090274 35.3564572,0.0152434797 C32.564449,0.264255667 31.8630264,3.25476308 32.2123695,6.2917673 C32.5617126,9.3285899 34.308428,11.3533805 36.2299061,11.1508651" id="Fill-9" fill="#874538"></path>
                            <path d="M53.9867321,15.3349782 C53.8119693,12.0956402 52.0652539,10.273365 49.7946151,10.4758804 C47.0024245,10.7248926 46.3008195,13.7154 46.6501626,16.7522226 C46.9995057,19.7892268 48.7462211,21.8138358 50.6678816,21.6113204 C52.5893598,21.4089866 54.1613124,18.5743162 53.9867321,15.3349782" id="Fill-11" fill="#874538"></path>
                        </g>
                    </g>
                    <g id="Group-20" transform="translate(0.000000, 48.000000)" fill="#694CA9">
                        <path d="M68.4636953,55.1427427 C57.6532083,55.3171787 45.017289,57.4720083 42.2765996,58.0905292 C30.6218183,60.7201517 19.4846483,65.6603243 7.39918987,65.6450612 C5.20769099,65.6423356 2.70693215,65.5556628 0.118331865,65.2911015 C0.073503689,68.5574154 0.0335757592,71.5024764 0,74 C2.67027105,73.3009841 5.38446283,72.6192301 8.19230375,72.1055525 C19.8084275,69.9816126 32.2693899,71.6810916 44.0844273,71.6810916 C49.3062746,71.6810916 54.5283033,71.6818184 59.7501506,71.6810916 C62.297008,71.6807282 65.6095743,71.5842432 69,71.1214428 C68.8504518,66.647523 68.6662388,61.152971 68.4636953,55.1427427" id="Fill-14"></path>
                        <path d="M53.7099804,0.143783711 C42.9241761,-0.402964095 32.1514392,0.697981387 21.4665437,1.95591926 C14.563912,2.76868195 7.8026616,4.54829246 1.02235464,6.06752091 C0.943224746,10.3911713 0.860283546,15.2964567 0.776797875,20.4868359 C16.5906175,19.3408278 32.7603401,20.9220174 48.5835972,20.1835717 C50.8371659,20.0781833 59.4140482,19.7794616 67.2108839,18.5456904 C66.997814,12.4553305 66.7972669,6.82159315 66.6257582,2.14725374 C62.0997459,0.939466211 57.4069437,0.3313024 53.7099804,0.143783711" id="Fill-16"></path>
                        <path d="M68.261297,49.1553727 C68.1204603,44.993439 67.9738159,40.6785104 67.8260826,36.3583124 C63.4229394,34.2192911 58.0480955,34.8183697 52.928246,35.0420475 C36.0006186,35.7817651 17.5197948,37.8066762 0.542257585,35.6338579 C0.476557992,40.0192877 0.412491813,44.4067163 0.351692466,48.6436938 C4.65537883,48.7409055 8.27920144,49.0450783 9.49972566,49.1468326 C26.4611102,50.5603092 51.7273228,58.1975166 68.261297,49.1553727" id="Fill-18"></path>
                    </g>
                </g>
            </g>
        </g>
    </g>
</svg>