<?xml version="1.0" encoding="UTF-8"?>
<svg width="24px" height="24px" viewBox="0 0 24 24" version="1.1" xmlns="http://www.w3.org/2000/svg" xmlns:xlink="http://www.w3.org/1999/xlink">
    <title>coolicons / basic / Cokie</title>
    <g id="coolicons-/-basic-/-Cokie" stroke="none" stroke-width="1" fill="none" fill-rule="evenodd">
        <path d="M12.0650271,1.99583333 C17.5565143,2.03084792 22.0041667,6.50020938 22.0041667,12 C22.0041667,17.5214997 17.5214997,22.0041667 12,22.0041667 C6.47853035,22.0041667 1.99583333,17.5214997 1.99583333,12 C5.23635299,12.9061774 8.15506861,10.0049691 6.99791667,6.99791667 C10.3351066,7.58733215 12.6552729,4.72864153 12.0650271,1.99583333 Z M13.2505208,16.1684361 C12.5602333,16.1684361 12,16.7286695 12,17.418957 C12,18.1092445 12.5602333,18.6694778 13.2505208,18.6694778 C13.9408083,18.6694778 14.5010417,18.1092445 14.5010417,17.418957 C14.5010417,16.7286695 13.9408083,16.1684361 13.2505208,16.1684361 Z M7.55064688,13.6673945 C6.63026354,13.6673945 5.88328243,14.4143055 5.88328243,15.3346889 C5.88328243,16.2550722 6.63026354,17.0020833 7.55064688,17.0020833 C8.47103021,17.0020833 9.21801132,16.2550722 9.21801132,15.3346889 C9.21801132,14.4143055 8.47103021,13.6673945 7.55064688,13.6673945 Z M17.0020833,11.1663528 C16.0817,11.1663528 15.3346889,11.9132639 15.3346889,12.8336472 C15.3346889,13.7540305 16.0817,14.5010417 17.0020833,14.5010417 C17.9224667,14.5010417 18.6694778,13.7540305 18.6694778,12.8336472 C18.6694778,11.9132639 17.9224667,11.1663528 17.0020833,11.1663528 Z M12,10.3326055 C11.5398083,10.3326055 11.1663528,10.7061611 11.1663528,11.1663528 C11.1663528,11.6265445 11.5398083,12 12,12 C12.4601917,12 12.8336472,11.6265445 12.8336472,11.1663528 C12.8336472,10.7061611 12.4601917,10.3326055 12,10.3326055 Z M4.496875,7.83159389 C4.95706667,7.83159389 5.33055222,8.20508945 5.33055222,8.66528111 C5.33055222,9.12547278 4.95706667,9.49895833 4.496875,9.49895833 C4.03668333,9.49895833 3.66319778,9.12547278 3.66319778,8.66528111 C3.66319778,8.20508945 4.03668333,7.83159389 4.496875,7.83159389 Z M15.7515625,6.16423945 C15.061275,6.16423945 14.5010417,6.72447278 14.5010417,7.41476028 C14.5010417,8.10504778 15.061275,8.66528111 15.7515625,8.66528111 C16.44185,8.66528111 17.0020833,8.10504778 17.0020833,7.41476028 C17.0020833,6.72447278 16.44185,6.16423945 15.7515625,6.16423945 Z M3.24635417,4.496875 C3.93664167,4.496875 4.496875,5.05710833 4.496875,5.74739583 C4.496875,6.43768333 3.93664167,6.99791667 3.24635417,6.99791667 C2.55606667,6.99791667 1.99583333,6.43768333 1.99583333,5.74739583 C1.99583333,5.05710833 2.55606667,4.496875 3.24635417,4.496875 Z M8.2484375,2.82951055 C8.938725,2.82951055 9.49895833,3.38974389 9.49895833,4.08003139 C9.49895833,4.77031889 8.938725,5.33055222 8.2484375,5.33055222 C7.55815,5.33055222 6.99791667,4.77031889 6.99791667,4.08003139 C6.99791667,3.38974389 7.55815,2.82951055 8.2484375,2.82951055 Z M5.33055222,1.99583333 C5.79074389,1.99583333 6.16423945,2.36931889 6.16423945,2.82951055 C6.16423945,3.28970222 5.79074389,3.66319778 5.33055222,3.66319778 C4.87036055,3.66319778 4.496875,3.28970222 4.496875,2.82951055 C4.496875,2.36931889 4.87036055,1.99583333 5.33055222,1.99583333 Z" id="Combined-Shape" fill="#2E3A59" fill-rule="nonzero"></path>
    </g>
</svg>