<?xml version="1.0" encoding="UTF-8"?>
<svg width="24px" height="24px" viewBox="0 0 24 24" version="1.1" xmlns="http://www.w3.org/2000/svg" xmlns:xlink="http://www.w3.org/1999/xlink">
    <title>coolicons / user / user</title>
    <g id="coolicons-/-user-/-user" stroke="none" stroke-width="1" fill="none" fill-rule="evenodd">
        <path d="M12,1.99583333 C9.24185125,1.99583333 6.99791667,4.23976792 6.99791667,6.99791667 C6.99791667,9.75606542 9.24185125,12 12,12 C14.7581488,12 17.0020833,9.75606542 17.0020833,6.99791667 C17.0020833,4.23976792 14.7581488,1.99583333 12,1.99583333 Z M12,9.99916667 C10.3453108,9.99916667 8.99875,8.65260583 8.99875,6.99791667 C8.99875,5.3432275 10.3453108,3.99666667 12,3.99666667 C13.6546892,3.99666667 15.00125,5.3432275 15.00125,6.99791667 C15.00125,8.65260583 13.6546892,9.99916667 12,9.99916667 Z M21.00375,21.00375 L21.00375,20.0033333 C21.00375,16.1427254 17.8614413,13.0004167 14.0008333,13.0004167 L9.99916667,13.0004167 C6.13755833,13.0004167 2.99625,16.1427254 2.99625,20.0033333 L2.99625,21.00375 L4.99708333,21.00375 L4.99708333,20.0033333 C4.99708333,17.2451846 7.24101792,15.00125 9.99916667,15.00125 L14.0008333,15.00125 C16.7589821,15.00125 19.0029167,17.2451846 19.0029167,20.0033333 L19.0029167,21.00375 L21.00375,21.00375 Z" id="Combined-Shape" fill="#2E3A59" fill-rule="nonzero"></path>
    </g>
</svg>