<?xml version="1.0" encoding="UTF-8"?>
<svg width="832px" height="592px" viewBox="0 0 832 592" version="1.1" xmlns="http://www.w3.org/2000/svg" xmlns:xlink="http://www.w3.org/1999/xlink">
    <title>5631A68B-CA4F-4E19-9753-2FFC50399743</title>
    <g id="Page-1" stroke="none" stroke-width="1" fill="none" fill-rule="evenodd">
        <g id="Home" transform="translate(-1178.000000, -4356.000000)" fill="#F6F2FF">
            <g id="Group" transform="translate(1593.643604, 4652.153141) rotate(-26.000000) translate(-1593.643604, -4652.153141) translate(1197.643604, 4516.153141)">
                <path d="M1.13550403,235.002496 C0.0538961434,237.2311 -0.590579704,240.040029 0.773034083,242.371333 C4.05969296,247.99073 11.2712265,246.61375 16.5581882,249.223129 C21.074863,251.45235 25.0870726,258.442721 30.4509866,257.977877 C33.6237438,257.702881 35.9132286,255.341398 37.1560699,252.78052 C38.8571136,249.275634 37.8477249,245.097424 35.3705924,240.980341 C34.3699066,239.317126 34.3938779,235.138608 33.6129032,231.597846 C32.8317759,228.055544 31.1041654,225.107886 28.8111688,223.976185 C25.6359687,222.409048 22.5887171,222.884517 19.8824071,224.301838 C16.7152992,225.960434 13.9973853,228.777677 11.8243978,229.137204 C7.20344034,229.901526 3.11840094,230.916669 1.13550403,235.002496" id="Fill-12"></path>
                <path d="M44.2657978,228.771735 C40.1961778,232.115718 38.7928345,237.167545 41.131388,240.054867 C43.4699415,242.942493 48.6646492,242.572425 52.7342692,239.22829 C56.8038893,235.884155 58.2070817,230.83248 55.868679,227.945006 C53.5301255,225.057532 48.335267,225.4276 44.2657978,228.771735" id="Fill-14"></path>
                <path d="M37.1929116,212.918664 C34.1539439,217.77675 34.2903965,223.318542 37.4974102,225.296313 C40.7045743,227.274383 45.7680663,224.939448 48.807034,220.081212 C51.8460018,215.223125 51.7096996,209.681483 48.5025355,207.703562 C45.2953714,205.725791 40.2318794,208.060428 37.1929116,212.918664" id="Fill-16"></path>
                <path d="M15.9962262,215.659201 C15.8750872,220.905071 12.8684109,225.086637 9.28061841,224.998636 C5.69282595,224.910786 2.88263481,220.586819 3.00377383,215.34095 C3.12491285,210.094779 6.13158914,205.913363 9.71938159,206.001364 C13.307174,206.089215 16.1173652,210.413331 15.9962262,215.659201" id="Fill-18"></path>
                <path d="M34.0295616,211.357236 C31.9933158,216.723105 27.419156,220.017591 23.812937,218.715878 C20.2068712,217.413865 18.9340069,212.00869 20.9704059,206.642821 C23.0066517,201.276802 27.5808115,197.982316 31.1870305,199.284179 C34.7932496,200.586042 36.0659607,205.991366 34.0295616,211.357236" id="Fill-20"></path>
                <path d="M109.966192,271.381861 C107.623789,272.163377 104.765741,272.436839 102.643671,270.784787 C97.5284712,266.802972 99.8366821,259.844018 97.9562584,254.272801 C96.3498332,249.513281 89.9765708,244.635474 91.1412559,239.386954 C91.8303153,236.28223 94.4628164,234.322571 97.1545025,233.424597 C100.838532,232.195847 104.830599,233.736777 108.56906,236.722452 C110.079349,237.928489 114.207878,238.446909 117.600737,239.679165 C120.994822,240.911726 123.677461,243.004 124.493017,245.420343 C125.622283,248.766214 124.752142,251.720488 122.996682,254.215334 C120.942536,257.134702 117.803744,259.459281 117.162983,261.563445 C115.80035,266.037766 114.260623,269.94931 109.966192,271.381861" id="Fill-22"></path>
                <path d="M122.196296,229.79325 C118.284134,233.330368 113.010012,234.051663 110.416303,231.404493 C107.822594,228.757323 108.891427,223.743973 112.803744,220.206707 C116.715906,216.669737 121.990028,215.948293 124.583737,218.595463 C127.177446,221.242781 126.108459,226.25628 122.196296,229.79325" id="Fill-24"></path>
                <path d="M136.839234,239.674365 C131.545075,242.02512 125.98233,241.166382 124.414219,237.756334 C122.846259,234.346287 125.866702,229.67624 131.160862,227.325635 C136.454869,224.97488 142.017766,225.833618 143.585725,229.243666 C145.153837,232.653713 142.133242,237.323611 136.839234,239.674365" id="Fill-26"></path>
                <path d="M132.220817,259.076013 C126.989476,258.531923 122.425992,260.966943 122.027846,264.514873 C121.629701,268.062658 125.547843,271.37986 130.779183,271.92395 C136.010524,272.468185 140.57416,270.033165 140.972154,266.485235 C141.370299,262.937304 137.452157,259.620103 132.220817,259.076013" id="Fill-28"></path>
                <path d="M137.955705,242.386844 C132.220544,243.651033 128.262644,247.636567 129.115637,251.288854 C129.968477,254.94129 135.309169,256.877346 141.04433,255.613156 C146.779491,254.348967 150.737237,250.363433 149.884398,246.711146 C149.031558,243.05871 143.690866,241.122654 137.955705,242.386844" id="Fill-30"></path>
                <path d="M115.183092,141.622788 C113.664894,143.524051 112.444481,146.075384 113.262414,148.601639 C115.233629,154.690665 122.48158,154.92498 127.023655,158.562382 C130.903933,161.669666 133.282605,169.228187 138.554364,169.937931 C141.672675,170.357765 144.384132,168.589145 146.128613,166.404468 C148.516336,163.414266 148.433819,159.195381 146.92271,154.719369 C146.312504,152.911319 147.226531,148.914814 147.228341,145.355669 C147.230303,141.795314 146.192877,138.600558 144.222718,137.022895 C141.494969,134.838521 138.455101,134.637593 135.543008,135.412147 C132.135206,136.31859 128.91356,138.431356 126.741407,138.307626 C122.122396,138.044607 117.966507,138.137064 115.183092,141.622788" id="Fill-32"></path>
                <path d="M158.002676,144.390978 C153.3172,146.793432 150.860968,151.476009 152.516418,154.849877 C154.171718,158.223899 159.312074,159.011279 163.997399,156.608979 C168.682725,154.206679 171.138957,149.523948 169.483657,146.15008 C167.828206,142.776212 162.688001,141.988678 158.002676,144.390978" id="Fill-34"></path>
                <path d="M153.996002,127.137164 C149.865225,131.318897 148.75687,136.886232 151.520434,139.571802 C154.283998,142.257525 159.873105,141.044721 164.004036,136.862836 C168.134814,132.68095 169.243169,127.113768 166.47945,124.428198 C163.715886,121.742475 158.126933,122.955279 153.996002,127.137164" id="Fill-36"></path>
                <path d="M133.600685,126.13506 C132.316776,131.302587 128.320811,134.759735 124.675336,133.856614 C121.029862,132.953646 119.115407,128.032577 120.399315,122.865049 C121.683071,117.697522 125.679189,114.240374 129.324664,115.143342 C132.970138,116.046463 134.884593,120.967532 133.600685,126.13506" id="Fill-38"></path>
                <path d="M151.695947,125.205587 C148.593586,130.035146 143.528365,132.291374 140.382567,130.244847 C137.236769,128.198319 137.201542,122.624144 140.304053,117.794434 C143.406414,112.964724 148.471635,110.708647 151.617433,112.755175 C154.763231,114.801703 154.798458,120.375877 151.695947,125.205587" id="Fill-40"></path>
                <path d="M208.820852,197.997153 C206.393641,197.936685 203.661936,197.22417 202.259246,194.952894 C198.878779,189.478499 203.358949,183.725677 203.502081,177.855576 C203.624571,172.840706 199.38441,166.098009 202.231223,161.563835 C203.915204,158.881622 207.007902,157.933937 209.796859,158.003544 C213.613954,158.098739 216.78108,160.899907 219.226371,164.971967 C220.21428,166.616936 223.852385,168.503776 226.570078,170.811758 C229.288976,173.120503 231.060494,175.995238 230.99842,178.541284 C230.91239,182.066544 229.111643,184.546029 226.648574,186.293809 C223.766205,188.339053 220.08275,189.457784 218.781005,191.216378 C216.012538,194.95655 213.270588,198.108188 208.820852,197.997153" id="Fill-42"></path>
                <path d="M233.612195,162.897753 C228.856959,165.058196 223.832611,163.945274 222.389968,160.411871 C220.947176,156.878468 223.632488,152.262727 228.387724,150.102284 C233.14296,147.941841 238.167456,149.054606 239.610099,152.588166 C241.052743,156.121412 238.367431,160.73731 233.612195,162.897753" id="Fill-44"></path>
                <path d="M245.023339,176.952608 C239.231721,177.398544 234.302307,174.64743 234.013288,170.80741 C233.724268,166.967696 238.185031,163.493356 243.9768,163.04742 C249.768417,162.601331 254.697831,165.352598 254.986699,169.192465 C255.27587,173.032179 250.814956,176.506673 245.023339,176.952608" id="Fill-46"></path>
                <path d="M232.938337,193.345804 C228.241534,190.978948 223.118542,191.815589 221.495805,195.214472 C219.872918,198.613355 222.36486,203.28734 227.061663,205.654196 C231.758466,208.021052 236.881458,207.184411 238.504195,203.785528 C240.127082,200.386645 237.63514,195.71266 232.938337,193.345804" id="Fill-48"></path>
                <path d="M245.36408,180.127064 C239.585186,179.397579 234.513439,181.883315 234.036175,185.679074 C233.559064,189.474833 237.857025,193.143446 243.63592,193.872931 C249.414966,194.602415 254.486561,192.116832 254.963825,188.320921 C255.440936,184.525162 251.142975,180.856548 245.36408,180.127064" id="Fill-50"></path>
                <path d="M258.190523,78.2511975 C256.115014,79.5316732 254.097896,81.5319492 254.005406,84.2123588 C253.782405,90.6725593 260.516192,93.3975177 263.545718,98.4184226 C266.133918,102.70778 265.792929,110.703239 270.506731,113.197214 C273.295149,114.672515 276.447039,113.929983 278.831853,112.458496 C282.095997,110.444642 283.456937,106.411746 283.562704,101.641352 C283.605554,99.7144599 285.827568,96.2365946 287.042909,92.8589643 C288.258551,89.4801134 288.372617,86.0893625 287.0586,83.9118063 C285.238984,80.8965172 282.449811,79.656166 279.448048,79.3858213 C275.935404,79.0697072 272.186481,79.9626685 270.186714,79.0951855 C265.934002,77.2506781 261.995724,75.9035316 258.190523,78.2511975" id="Fill-52"></path>
                <path d="M296.719643,96.0888603 C291.491016,96.6770156 287.601632,100.024283 288.032626,103.564987 C288.463621,107.105836 293.051728,109.499295 298.280356,108.91114 C303.509134,108.322839 307.398367,104.975571 306.967372,101.434868 C306.536378,97.8941642 301.948271,95.500705 296.719643,96.0888603" id="Fill-54"></path>
                <path d="M299.001754,77.5441086 C293.734545,80.1529061 290.80691,85.1580912 292.462907,88.7236788 C294.118752,92.2891089 299.731107,93.0646889 304.998316,90.4558914 C310.265373,87.8470939 313.193008,82.8417513 311.537163,79.2763212 C309.881166,75.7108911 304.268963,74.9353111 299.001754,77.5441086" id="Fill-56"></path>
                <path d="M280.78905,68.8489668 C277.73962,73.3408158 272.675712,75.2588568 269.478521,73.1330527 C266.281329,71.0074039 266.161519,65.6428564 269.21095,61.1510073 C272.26038,56.6593137 277.324288,54.7411174 280.521479,56.8669215 C283.718671,58.9927256 283.838481,64.3572732 280.78905,68.8489668" id="Fill-58"></path>
                <path d="M297.725514,75.0604294 C293.027749,78.6109679 287.327522,78.9997399 284.993882,75.9287175 C282.660088,72.8578487 284.576638,67.4899699 289.274403,63.9394313 C293.972322,60.3890463 299.67255,60.0002743 302.00619,63.0712967 C304.33983,66.1421656 302.423433,71.5098908 297.725514,75.0604294" id="Fill-60"></path>
                <path d="M322.748839,172.566997 C320.4264,171.801926 317.997485,170.32357 317.297204,167.740178 C315.609522,161.513139 321.579429,157.309434 323.402101,151.730033 C324.959343,146.963682 322.80693,139.27169 326.852543,135.759185 C329.245663,133.681474 332.498929,133.675077 335.167489,134.554231 C338.819962,135.757509 341.068991,139.362621 342.257664,143.974374 C342.737865,145.83717 345.703253,148.70417 347.660915,151.705967 C349.619184,154.708983 350.502081,157.978091 349.711402,160.397746 C348.616767,163.748646 346.169348,165.598191 343.293297,166.554264 C339.927641,167.672855 336.055847,167.670875 334.296271,168.975898 C330.554159,171.750748 327.006493,173.969654 322.748839,172.566997" id="Fill-62"></path>
                <path d="M357.265977,145.914326 C352.036628,146.49187 347.454372,144.088369 347.031442,140.545771 C346.608359,137.003319 350.504524,133.663363 355.733873,133.085674 C360.963222,132.50813 365.545477,134.911631 365.96856,138.454229 C366.391642,141.996681 362.495326,145.336637 357.265977,145.914326" id="Fill-64"></path>
                <path d="M363.002853,162.635003 C357.263898,161.406226 353.281837,157.439572 354.108639,153.775066 C354.93544,150.11086 360.258155,148.136204 365.99711,149.364982 C371.736219,150.59376 375.718279,154.560414 374.891324,158.224919 C374.064523,161.889275 368.741961,163.863781 363.002853,162.635003" id="Fill-66"></path>
                <path d="M347.152314,175.165314 C343.224016,171.645381 337.95678,170.956576 335.387276,173.626829 C332.817927,176.296784 333.919648,181.314798 337.847793,184.834731 C341.775938,188.354515 347.043328,189.043469 349.612677,186.373216 C352.182027,183.703111 351.080459,178.685098 347.152314,175.165314" id="Fill-68"></path>
                <path d="M361.792351,166.29002 C356.490656,163.968142 350.942618,164.866152 349.400469,168.295815 C347.858321,171.725478 350.905954,176.387924 356.207649,178.709802 C361.509344,181.031979 367.057382,180.133819 368.599531,176.704156 C370.141679,173.274493 367.094046,168.611898 361.792351,166.29002" id="Fill-70"></path>
                <path d="M404.081163,71.2826172 C401.755125,71.8973407 399.281387,73.2105519 398.438458,75.7228739 C396.406624,81.7783457 402.014419,86.3010082 403.468137,91.9305655 C404.710003,96.7399884 402.133772,104.215829 405.894133,107.937223 C408.118572,110.138486 411.312157,110.343746 413.984915,109.63741 C417.64308,108.670726 420.068182,105.242733 421.512948,100.754331 C422.096434,98.9412509 425.180513,96.287209 427.283212,93.43817 C429.386508,90.5879237 430.449942,87.4088085 429.81961,84.9671201 C428.946543,81.5862163 426.655117,79.6071175 423.889115,78.4858848 C420.652116,77.1735791 416.850876,76.9387375 415.201867,75.5404038 C411.69513,72.5671524 408.345641,70.1556492 404.081163,71.2826172" id="Fill-72"></path>
                <path d="M436.679749,99.2142253 C431.474307,98.2688958 426.726159,100.540511 426.07453,104.28831 C425.423053,108.035955 429.114808,111.840394 434.320251,112.785723 C439.525845,113.731208 444.273993,111.459438 444.92547,107.711793 C445.576947,103.963993 441.885192,100.159555 436.679749,99.2142253" id="Fill-74"></path>
                <path d="M444.431304,83.1919979 C438.662819,84.0874422 434.465048,87.8613495 435.055362,91.6213058 C435.645676,95.3812621 440.80021,97.7033516 446.568848,96.808059 C452.337181,95.912463 456.534952,92.1385557 455.944638,88.3785994 C455.354476,84.6186431 450.199637,82.2965536 444.431304,83.1919979" id="Fill-76"></path>
                <path d="M428.751001,69.2125546 C424.68671,72.5640951 419.488878,72.9473321 417.141047,70.0685771 C414.793216,67.1898221 416.184708,62.1391377 420.248999,58.7874454 C424.31329,55.4359049 429.511122,55.0526679 431.858953,57.9314229 C434.206784,60.8103297 432.815292,65.8608623 428.751001,69.2125546" id="Fill-78"></path>
                <path d="M443.368537,80.0215362 C438.004159,82.065727 432.595081,80.8031341 431.286952,77.2012604 C429.978822,73.59954 433.266937,69.0226598 438.631314,66.978469 C443.995692,64.9342782 449.404919,66.1968712 450.713049,69.7985916 C452.021178,73.4004653 448.733064,77.9773455 443.368537,80.0215362" id="Fill-80"></path>
                <path d="M475.453618,179.967373 C473.0093,179.760361 470.296605,178.883192 469.017437,176.52765 C465.934068,170.850307 470.795455,165.369145 471.289738,159.508894 C471.712169,154.502471 467.837369,147.505408 470.978889,143.143972 C472.837283,140.564027 476.012902,139.803255 478.821653,140.041234 C482.665856,140.366931 485.693206,143.358764 487.916641,147.577565 C488.814936,149.281714 492.371885,151.387835 494.975281,153.859315 C497.579895,156.331864 499.195334,159.313018 498.980997,161.854825 C498.684154,165.374027 496.720266,167.744366 494.131788,169.342949 C491.102764,171.213684 487.321127,172.109769 485.903432,173.78951 C482.88826,177.361799 479.934893,180.34692 475.453618,179.967373" id="Fill-82"></path>
                <path d="M503.221372,146.225827 C498.405703,147.991305 493.507391,146.634999 492.280681,143.196611 C491.053824,139.758074 493.963106,135.53965 498.778628,133.774173 C503.594297,132.008695 508.492609,133.365001 509.719319,136.803389 C510.946176,140.241777 508.036894,144.460499 503.221372,146.225827" id="Fill-84"></path>
                <path d="M512.612398,160.997786 C506.81374,161.094052 502.062719,158.039101 502.000612,154.17428 C501.938657,150.309306 506.589095,147.09848 512.387753,147.002214 C518.186411,146.905948 522.937281,149.961053 522.999388,153.825874 C523.061343,157.69054 518.410905,160.901674 512.612398,160.997786" id="Fill-86"></path>
                <path d="M500.336633,177.657237 C495.72165,175.060403 490.486664,175.571211 488.64387,178.798162 C486.801228,182.024963 489.048471,186.745929 493.663454,189.342763 C498.278437,191.939597 503.513423,191.428789 505.356065,188.201838 C507.19886,184.975189 504.951464,180.254071 500.336633,177.657237" id="Fill-88"></path>
                <path d="M512.778112,164.270651 C507.022932,163.209649 501.784986,165.36239 501.07918,169.078911 C500.373222,172.795432 504.466434,176.668497 510.221767,177.729349 C515.9771,178.790351 521.214894,176.63761 521.920852,172.921089 C522.626657,169.204568 518.533445,165.331654 512.778112,164.270651" id="Fill-90"></path>
                <path d="M531.598282,62.9827274 C529.436925,64.116212 527.291515,65.9595117 527.039266,68.5840129 C526.43165,74.9099608 533.035845,77.9830268 535.781733,83.0892564 C538.127607,87.4516274 537.310416,95.2769903 541.898591,98.0036221 C544.612435,99.6164156 547.823489,99.0747186 550.306953,97.7723661 C553.706169,95.9896548 555.312759,92.1130415 555.702447,87.4384299 C555.859628,85.5501387 558.298596,82.2690623 559.720213,79.0268284 C561.142286,75.7833948 561.458015,72.4630258 560.267082,70.2482467 C558.61797,67.1817794 555.88909,65.7993421 552.88913,65.3561763 C549.378597,64.8377249 545.559016,65.4916006 543.60116,64.5220349 C539.437754,62.4599267 535.560768,60.9047223 531.598282,62.9827274" id="Fill-92"></path>
                <path d="M570.119714,83.021439 C564.877206,83.3104242 560.797856,86.445139 561.00775,90.0231203 C561.217945,93.6011016 565.637918,96.2674208 570.880426,95.9785817 C576.122934,95.6894505 580.202283,92.5547356 579.992239,88.9767543 C579.782195,85.3987731 575.362071,82.7324538 570.119714,83.021439" id="Fill-94"></path>
                <path d="M573.415982,65.1343174 C568.082269,67.3235271 564.915146,71.9482856 566.342134,75.4639131 C567.769424,78.9795406 573.250004,80.0549286 578.584018,77.8657189 C583.917731,75.6763578 587.084854,71.0517507 585.657866,67.5361232 C584.230576,64.0203444 578.749846,62.9451077 573.415982,65.1343174" id="Fill-96"></path>
                <path d="M555.429815,55.5198577 C552.185117,59.6550802 547.123702,61.2075803 544.124943,58.987526 C541.126031,56.7673225 541.325548,51.6153155 544.570246,47.4800931 C547.814943,43.3448706 552.876358,41.7923705 555.875117,44.0125741 C558.873876,46.2326283 558.674512,51.3846353 555.429815,55.5198577" id="Fill-98"></path>
                <path d="M571.308891,62.6036681 C566.503815,65.7569317 560.9032,65.8043871 558.799573,62.709553 C556.696098,59.6147189 558.885904,54.5495955 563.69098,51.3963319 C568.496208,48.2430683 574.096822,48.1956129 576.200298,51.290447 C578.304075,54.3852811 576.113967,59.4504045 571.308891,62.6036681" id="Fill-100"></path>
                <path d="M617.377064,149.908153 C614.924895,150.197061 612.073097,149.882486 610.33698,147.828958 C606.152525,142.879316 609.842348,136.522715 609.149127,130.6735 C608.556886,125.676496 603.326317,119.591081 605.545421,114.679482 C606.858311,111.774201 609.836678,110.388478 612.654459,110.056485 C616.510998,109.602115 620.099074,111.928204 623.141799,115.619848 C624.370872,117.111142 628.302801,118.461572 631.368204,120.362472 C634.434679,122.263982 636.628499,124.863702 636.92914,127.400628 C637.345318,130.913518 635.886244,133.634393 633.655802,135.723977 C631.045651,138.169235 627.496954,139.809643 626.437356,141.743238 C624.183776,145.855029 621.872886,149.378461 617.377064,149.908153" id="Fill-102"></path>
                <path d="M637.560498,111.162746 C632.996903,113.87855 627.703128,113.54496 625.736723,110.417548 C623.770319,107.289986 625.875908,102.553208 630.439502,99.837254 C635.00325,97.1214496 640.296872,97.4550402 642.263277,100.582452 C644.229681,103.710014 642.124092,108.446942 637.560498,111.162746" id="Fill-104"></path>
                <path d="M650.010503,123.628901 C644.272537,124.867682 638.944919,122.904013 638.11056,119.242962 C637.276507,115.581911 641.25165,111.609895 646.989463,110.371115 C652.727429,109.132334 658.055047,111.095853 658.889406,114.756904 C659.723612,118.417955 655.748316,122.389972 650.010503,123.628901" id="Fill-106"></path>
                <path d="M641.616168,142.64364 C636.502562,141.026512 631.409642,142.56164 630.240814,146.072139 C629.072139,149.582637 632.27017,153.739355 637.383776,155.356333 C642.497537,156.973461 647.590302,155.438483 648.759131,151.927985 C649.92796,148.417486 646.729929,144.260768 641.616168,142.64364" id="Fill-108"></path>
                <path d="M650.383283,127.002387 C644.584679,127.102348 639.936132,130.316482 640.000664,134.181053 C640.065044,138.045778 644.818114,141.097573 650.616717,140.997613 C656.415321,140.897498 661.063868,137.683518 660.999336,133.818793 C660.934805,129.954222 656.181886,126.902427 650.383283,127.002387" id="Fill-110"></path>
                <path d="M648.405375,23.9633291 C646.492531,25.5195189 644.741616,27.7757589 645.031614,30.4270002 C645.730748,36.8172532 652.92081,38.5392403 656.698782,43.0488382 C659.926314,46.9014659 660.725808,54.8196943 665.842941,56.6020541 C668.869752,57.6566044 671.94659,56.4764546 674.14466,54.6883305 C677.153,52.2408092 677.950186,48.07752 677.374654,43.3673876 C677.142071,41.4647375 678.888522,37.7249673 679.632603,34.2274464 C680.376991,30.7285603 680.007106,27.3751451 678.368404,25.4192516 C676.099681,22.7108231 673.105348,21.8877521 670.035284,22.0496056 C666.442639,22.2392183 662.784421,23.6525159 660.640841,23.083981 C656.082153,21.8747068 651.912283,21.1103398 648.405375,23.9633291" id="Fill-112"></path>
                <path d="M689.758981,35.4491732 C684.602089,36.8087413 681.201181,40.8438102 682.162583,44.4617475 C683.124139,48.0796848 688.084186,49.9103949 693.241079,48.5508268 C698.398124,47.1912587 701.799032,43.1561898 700.837323,39.5382525 C699.875921,35.9203152 694.915874,34.0896051 689.758981,35.4491732" id="Fill-114"></path>
                <path d="M689.6867,18.400335 C684.882744,21.5558359 682.695353,26.6208864 684.801679,29.7135263 C686.907703,32.8060181 692.509324,32.7551659 697.31328,29.599665 C702.117388,26.4441641 704.304476,21.3791136 702.198452,18.2864737 C700.092429,15.1939819 694.490656,15.2448341 689.6867,18.400335" id="Fill-116"></path>
                <path d="M670.68825,11.8936958 C668.34872,16.5990296 663.681569,19.1177513 660.263766,17.5194558 C656.846273,15.9214603 655.972178,10.811565 658.311708,6.10623118 C660.651239,1.40104736 665.31839,-1.11767428 668.736192,0.480471175 C672.153841,2.07861663 673.027781,7.18851196 670.68825,11.8936958" id="Fill-118"></path>
                <path d="M687.970518,15.8961468 C683.82747,20.0661412 678.243394,21.2544601 675.498288,18.5504063 C672.753028,15.8463526 673.886462,10.2738477 678.02951,6.10385325 C682.172558,1.93385884 687.75648,0.745539901 690.50174,3.44959366 C693.246846,6.15364743 692.11372,11.7261523 687.970518,15.8961468" id="Fill-120"></path>
                <path d="M751.628815,90.4848386 C749.316862,91.1926454 746.516589,91.3798364 744.491663,89.6735761 C739.611156,85.5609849 742.071794,78.7071214 740.398794,73.1095922 C738.969505,68.3275729 732.886183,63.2863076 734.179078,58.1001741 C734.943934,55.0323033 737.57409,53.161151 740.230475,52.3479164 C743.866349,51.2347818 747.721502,52.8862804 751.286332,55.9670452 C752.726262,57.2115474 756.744939,57.8497264 760.02364,59.1761436 C763.303841,60.5030159 765.863252,62.6639049 766.588838,65.0916246 C767.593657,68.4533277 766.656135,71.3661666 764.867276,73.7957066 C762.774003,76.6387661 759.63844,78.8579057 758.950475,80.9317221 C757.487012,85.3420896 755.867221,89.1872433 751.628815,90.4848386" id="Fill-122"></path>
                <path d="M764.000127,49.9779346 C760.018503,53.4364247 754.775721,54.011467 752.290377,51.2621957 C749.805032,48.5129244 751.017913,43.4805555 754.999842,40.0220654 C758.981466,36.5635753 764.224248,35.988533 766.709592,38.7378043 C769.19509,41.4869258 767.981903,46.5194445 764.000127,49.9779346" id="Fill-124"></path>
                <path d="M779.63119,59.8307209 C774.304371,62.0507477 768.80831,61.0159626 767.355062,57.5196958 C765.901662,54.023278 769.041903,49.3893059 774.368722,47.1692791 C779.695541,44.9492523 785.191753,45.9840374 786.645002,49.4803042 C788.09825,52.976722 784.95801,57.6106941 779.63119,59.8307209" id="Fill-126"></path>
                <path d="M773.422329,79.1233037 C768.200796,78.4309187 763.554942,80.7244712 763.045565,84.246257 C762.536188,87.7680428 766.355988,91.1841663 771.577521,91.8766963 C776.799205,92.5690813 781.445059,90.2755288 781.954436,86.753743 C782.463814,83.2319572 778.643863,79.8156887 773.422329,79.1233037" id="Fill-128"></path>
                <path d="M780.165329,62.2938477 C774.414062,63.3986948 770.349158,67.2967133 771.086339,71.0002895 C771.823367,74.7040161 777.083282,76.8110003 782.834549,75.7061532 C788.585968,74.6014564 792.650719,70.7032876 791.913691,66.999561 C791.176664,63.2959848 785.916596,61.1890006 780.165329,62.2938477" id="Fill-130"></path>
            </g>
        </g>
    </g>
</svg>