<?xml version="1.0" encoding="UTF-8"?>
<svg width="68px" height="122px" viewBox="0 0 68 122" version="1.1" xmlns="http://www.w3.org/2000/svg" xmlns:xlink="http://www.w3.org/1999/xlink">
    <title>E70E5015-CCE8-443A-9D78-113E62170964</title>
    <g id="Page-1" stroke="none" stroke-width="1" fill="none" fill-rule="evenodd">
        <g id="Home" transform="translate(-1669.000000, -4879.000000)">
            <g id="Group-24" transform="translate(1703.000000, 4940.000000) rotate(-180.000000) translate(-1703.000000, -4940.000000) translate(1669.000000, 4879.000000)">
                <path d="M64.8048781,30.2923369 C64.4328568,23.9452929 62.7922337,11.808701 57.8966456,10.3128575 C53.051134,8.83222655 50.838184,12.1292389 50.838184,12.1292389 C50.838184,12.1292389 49.636706,1.83658994 43.3292125,0.32302826 C35.5325682,-1.54776046 33.1532297,5.31794287 33.1532297,5.31794287 C33.1532297,5.31794287 30.7738911,-1.54776046 22.9772468,0.32302826 C16.6697534,1.83658994 15.4684529,12.1292389 15.4684529,12.1292389 C15.4684529,12.1292389 13.2555029,8.83222655 8.40981368,10.3128575 C3.51422565,11.808701 1.87360257,23.9452929 1.50175878,30.2923369 C1.09191377,37.28511 0,122 0,122 L68,122 C68,122 65.2147231,37.28511 64.8048781,30.2923369" id="Fill-1" fill="#8064BC"></path>
                <path d="M34.7731811,25 C24.5823489,25 15.1962175,33.2033135 20.5597469,38.8609811 C25.9232763,44.5184584 29.0868692,37.1637569 35.0412944,37.1637569 C40.6731175,37.1637569 43.6230858,43.1040415 48.4502081,39.7095932 C53.2775109,36.3151449 46.3049407,25 34.7731811,25" id="Fill-3" fill="#CAC0EA"></path>
                <path d="M9.03931457,15.0150444 C6.40960927,15.2603846 5.74900448,18.2066141 6.07801831,21.1988337 C6.40703214,24.1910534 8.05210128,26.1858068 9.86176323,25.9862778 C11.6714252,25.7869277 13.1520733,22.9940582 12.9874805,19.8024884 C12.8230595,16.6107398 11.1779903,14.8155154 9.03931457,15.0150444" id="Fill-5" fill="#CAC0EA"></path>
                <path d="M24.8617766,14.9862791 C26.6714445,14.7867528 28.1519257,11.9941008 27.9875041,8.80257526 C27.8229108,5.61087074 26.1778362,3.81567117 24.0391534,4.01501849 C21.4096113,4.26035527 20.7490043,7.206723 21.0780192,10.1989012 C21.4070341,13.1909005 23.0521087,15.1858053 24.8617766,14.9862791" id="Fill-7" fill="#CAC0EA"></path>
                <path d="M40.8617766,14.9862791 C42.6714445,14.7867528 44.1519257,11.9941008 43.9875041,8.80257526 C43.8229108,5.61087074 42.1778362,3.81567117 40.0391534,4.01501849 C37.4096113,4.26035527 36.7490043,7.206723 37.0780192,10.1989012 C37.4070341,13.1909005 39.0521087,15.1858053 40.8617766,14.9862791" id="Fill-9" fill="#CAC0EA"></path>
                <path d="M58.9874818,19.8024877 C58.8228889,16.6109176 57.1778196,14.8155141 55.0391437,15.0150431 C52.4096099,15.2603833 51.7490051,18.2067921 52.078019,21.1988332 C52.4070328,24.1910532 54.0521021,26.1858068 55.8617642,25.9862778 C57.6712545,25.7869277 59.1520746,22.9940578 58.9874818,19.8024877" id="Fill-11" fill="#CAC0EA"></path>
            </g>
        </g>
    </g>
</svg>