<?xml version="1.0" encoding="UTF-8"?>
<svg width="386px" height="304px" viewBox="0 0 386 304" version="1.1" xmlns="http://www.w3.org/2000/svg" xmlns:xlink="http://www.w3.org/1999/xlink">
    <title>05335279-43CC-401D-9272-9D3DA4C85837</title>
    <defs>
        <polygon id="path-1" points="0 298 367 298 367 0 0 0"></polygon>
    </defs>
    <g id="Page-1" stroke="none" stroke-width="1" fill="none" fill-rule="evenodd">
        <g id="Home" transform="translate(-1251.000000, -4948.000000)">
            <g id="Group-2" transform="translate(1260.000000, 4948.000000)">
                <path d="M358.589016,84.5324235 C346.294513,51.2703653 312.950628,27.4169523 277.640646,35.6281861 C244.408958,43.3560809 220.520285,72.7978148 188.812271,84.5926305 C155.569051,96.9587524 126.741411,88.1965219 96.7866314,73.5198188 C70.9664576,60.8690053 40.1030475,50.7233342 18.5416895,78.4392525 C-4.83909212,108.494113 -1.71258108,154.510575 9.80062433,187.94352 C21.1516601,220.905744 43.5000816,248.107199 72.4064041,265.762048 C130.018319,300.949531 211.303282,303.82565 272.396079,271.15701 C335.551433,237.385415 385.390376,157.042756 358.589016,84.5324235 Z" id="Stroke-1" stroke="#F0EDFA" stroke-width="20"></path>
                <path d="M327.013027,29.1826852 C304.570655,1.83941462 265.389597,-9.73126889 234.836667,9.58556072 C206.081946,27.7653722 193.217737,63.3635433 167.226465,84.8800159 C139.976816,107.438235 109.978562,108.621329 76.9865639,104.59557 C48.5484425,101.125361 16.1819812,101.670832 4.94445619,134.878457 C-7.24130946,170.888551 10.7395924,213.266235 32.5024446,241.026708 C53.9589919,268.396377 83.8844697,286.728454 116.862703,293.907051 C182.590309,308.21457 260.041649,284.287993 306.870635,233.453347 C355.280461,180.902494 375.936713,88.7902256 327.013027,29.1826852" id="Fill-3" fill="#CAC0EA"></path>
                <path d="M182.899048,69.8473689 L82,156.636509 L83.8778889,195.905576 C83.8778889,200.589633 89.5216229,267 94.8895881,267 L189.103189,203.876044 L273.99386,260.51981 C279.361825,260.51981 289.72515,198.803939 289.72515,194.120002 L296,156.544476 L195.010587,69.8473689 C191.466939,67.3842104 186.442816,67.3842104 182.899048,69.8473689" id="Fill-5" fill="#211F44"></path>
                <path d="M270.123885,283 L106.876115,283 C102.526255,283 99,279.474478 99,275.125522 L99,108.874599 C99,104.525522 102.526255,101 106.876115,101 L270.123885,101 C274.473745,101 278,104.525522 278,108.874599 L278,275.125522 C278,279.474478 274.473745,283 270.123885,283" id="Fill-7" fill="#FEFEFE"></path>
                <mask id="mask-2" fill="white">
                    <use xlink:href="#path-1"></use>
                </mask>
                <g id="Clip-10"></g>
                <path d="M191.713392,222.530927 L240.065078,174.727561 C252.763497,162.173202 270.888163,155 289.910975,155 C294.378495,155 298,157.852035 298,161.370346 L298,226.50012 L298,289.139521 C298,292.657832 291.960547,298 287.493028,298 L260.019005,298 L191.713392,230.469073 C189.428869,228.21036 189.428869,224.78964 191.713392,222.530927" id="Fill-18" fill="#262F5F" mask="url(#mask-2)"></path>
                <path d="M186.28661,222.489723 L137.934858,174.715524 C125.236572,162.168825 107.111926,155 88.0891347,155 C83.6216205,155 80,157.850295 80,161.366459 L80,226.456374 L80,289.823705 C80,293.33975 85.1852207,298 89.652735,298 L117.981072,297.912747 L186.28661,230.423025 C188.57113,228.16569 188.57113,224.747057 186.28661,222.489723" id="Fill-19" fill="#262F5F" mask="url(#mask-2)"></path>
                <path d="M298,262.848906 L298,290.513568 C298,294.648349 293.651606,298 288.289309,298 L89.7106909,298 C84.3483941,298 80,294.648349 80,290.513568 L80,262.848906 L182.948795,199.631138 C184.624064,198.602936 186.630914,198.059837 188.657163,198.004723 C190.909734,197.943005 193.185058,198.486223 195.051085,199.631138 L298,262.848906 Z" id="Fill-20" fill="#2C447C" mask="url(#mask-2)"></path>
                <polygon id="Fill-21" fill="#211F44" mask="url(#mask-2)" points="208.60769 205 298 251.16785 297.999761 263 207 206.600541"></polygon>
                <polygon id="Fill-22" fill="#211F44" mask="url(#mask-2)" points="169.39231 205 80 251.16785 80.0001193 263 171 206.600541"></polygon>
                <polygon id="Fill-23" fill="#8064BC" mask="url(#mask-2)" points="137 52 116.011594 120.951714 112.6485 132 103.060526 123.815973 78 102.429122"></polygon>
                <polygon id="Fill-24" fill="#8064BC" mask="url(#mask-2)" points="138 52 64.453952 95 31 83.776654"></polygon>
                <polygon id="Fill-25" fill="#492F82" mask="url(#mask-2)" points="138 52 78.9364386 102.180121 67.5845555 125 65 94.3899085"></polygon>
                <path d="M56.5505453,138.630069 C56.3297529,138.630069 56.1065696,138.568628 55.9068164,138.439973 C55.3508307,138.081783 55.188972,137.338111 55.545085,136.778883 C56.9306861,134.603295 58.4282972,132.477845 59.996318,130.461572 C60.4031165,129.938657 61.1543129,129.846194 61.6743167,130.255364 C62.1943206,130.664414 62.2861282,131.420111 61.8794493,131.943147 C60.3574518,133.900383 58.9035927,135.963789 57.5582769,138.076132 C57.330073,138.434442 56.9443138,138.630069 56.5505453,138.630069 L56.5505453,138.630069 Z M48.6511487,154.532523 C48.5116442,154.532523 48.3698685,154.507874 48.2316789,154.45569 C47.6135318,154.222549 47.3002145,153.529616 47.5320048,152.907745 C48.430954,150.495888 49.4465753,148.101346 50.5505375,145.79049 C50.8364799,145.192065 51.550499,144.939805 52.1458138,145.227655 C52.7407699,145.515265 52.9914476,146.233567 52.7053857,146.832113 C51.6321456,149.078642 50.6447359,151.406812 49.7706513,153.751937 C49.5907419,154.234693 49.1351707,154.532523 48.6511487,154.532523 L48.6511487,154.532523 Z M44.1835385,171.733547 C44.1231702,171.733547 44.0619652,171.728978 44.0004015,171.71948 C43.3479461,171.6186 42.9002646,171.004664 43.0005596,170.348404 C43.3885901,167.810899 43.8944881,165.258244 44.5045064,162.761018 C44.6620616,162.116181 45.3093768,161.722161 45.9507149,161.880274 C46.5918139,162.038748 46.9837892,162.689958 46.826234,163.334795 C46.2329514,165.763484 45.7409202,168.246161 45.3636484,170.713808 C45.2727972,171.308265 44.763552,171.733547 44.1835385,171.733547 L44.1835385,171.733547 Z M43.3338402,189.490313 C42.7055321,189.490313 42.1787144,188.997096 42.1416567,188.35791 C42.0475778,186.736018 41.9998809,185.085991 42.0000002,183.453758 C42.0000002,182.513376 42.0157799,181.559286 42.0469801,180.618183 C42.0689757,179.954468 42.623766,179.434438 43.2814812,179.456562 C43.9414677,179.478566 44.4584831,180.034547 44.4364875,180.698261 C44.4061241,181.612792 44.3908228,182.539828 44.3908228,183.453758 C44.3907033,185.039458 44.4370852,186.642473 44.5284146,188.217953 C44.5667873,188.880946 44.0636388,189.449552 43.4046086,189.488269 C43.3809394,189.489592 43.3573898,189.490313 43.3338402,189.490313 L43.3338402,189.490313 Z M46.2875817,207.014538 C45.7669802,207.014538 45.2880984,206.669695 45.138433,206.141008 C44.4355312,203.657129 43.8432049,201.121427 43.3777118,198.604483 C43.2569753,197.95159 43.6852911,197.323826 44.3343994,197.202506 C44.9830295,197.080585 45.6075123,197.511759 45.7282488,198.164652 C46.1801143,200.608371 46.7553461,203.070487 47.4379259,205.482704 C47.6186721,206.121289 47.2504854,206.786566 46.615483,206.968246 C46.5061029,206.999508 46.3960055,207.014538 46.2875817,207.014538 L46.2875817,207.014538 Z M131.926241,222.800841 C131.672216,222.800841 131.416398,222.71968 131.199311,222.552189 C129.403326,221.165843 127.197672,220.160172 124.820956,219.643989 C124.175553,219.503912 123.765408,218.864125 123.904673,218.21508 C124.044058,217.566034 124.679778,217.152655 125.325419,217.293454 C128.045697,217.884184 130.580088,219.042919 132.654964,220.644611 C133.178673,221.048852 133.277414,221.803586 132.875397,222.330349 C132.640021,222.63888 132.285103,222.800841 131.926241,222.800841 L131.926241,222.800841 Z M52.8960538,223.503152 C52.4676184,223.503152 52.0534085,223.270852 51.8388322,222.863726 C50.6395957,220.588219 49.5301345,218.236241 48.5411709,215.873202 C48.2849943,215.261069 48.5706975,214.556113 49.1791618,214.298443 C49.7876261,214.040773 50.4886152,214.328142 50.7447918,214.940154 C51.7062611,217.237904 52.7850001,219.524713 53.9512433,221.737335 C54.2603766,222.324097 54.0382692,223.051898 53.4549085,223.362834 C53.2764336,223.458063 53.0848092,223.503152 52.8960538,223.503152 L52.8960538,223.503152 Z M108.777223,224.2948 C108.491281,224.2948 108.204621,224.192237 107.975819,223.984345 C107.486179,223.538983 107.448045,222.778597 107.890945,222.285982 C109.658361,220.319728 112.014277,218.792463 114.703833,217.869395 C115.328793,217.65489 116.008026,217.990475 116.221287,218.618959 C116.434429,219.247324 116.10079,219.930757 115.475949,220.145142 C113.169761,220.93679 111.160156,222.23476 109.664218,223.898856 C109.428363,224.161335 109.103331,224.2948 108.777223,224.2948 L108.777223,224.2948 Z M62.73632,238.272 C62.393237,238.272 62.0527839,238.124348 61.8164511,237.838301 C60.1854321,235.865074 58.6206389,233.791687 57.1657039,231.675857 C56.7901057,231.129736 56.9259044,230.380652 57.4688602,230.002984 C58.0118159,229.625437 58.7565571,229.761787 59.1320358,230.307908 C60.547044,232.365663 62.0688024,234.382057 63.654874,236.300937 C64.0768541,236.811708 64.0075203,237.569689 63.4998291,237.99425 C63.2765263,238.18086 63.0056462,238.272 62.73632,238.272 L62.73632,238.272 Z M138.993034,238.472678 C138.33496,238.472678 137.800372,237.937618 137.797742,237.275106 C137.78782,234.789544 137.379229,232.407386 136.583324,230.194524 C136.358826,229.570127 136.680033,228.880802 137.30081,228.654995 C137.921587,228.429308 138.607035,228.752147 138.831653,229.376664 C139.72092,231.849241 140.177447,234.503497 140.188574,237.265487 C140.191194,237.929442 139.65816,238.470032 138.997935,238.472678 L138.993034,238.472678 Z M106.051925,241.077156 C105.541125,241.077156 105.06834,240.745178 104.909948,240.228635 C104.190191,237.879423 103.825113,235.589849 103.825232,233.423639 C103.825232,233.039838 103.836708,232.654235 103.85954,232.277288 C103.899587,231.614536 104.465853,231.110738 105.125242,231.150056 C105.784152,231.190336 106.285986,231.760264 106.24594,232.423137 C106.226096,232.751748 106.216055,233.088415 106.216055,233.423639 C106.215935,235.349493 106.545271,237.400875 107.194738,239.520312 C107.389231,240.154809 107.035389,240.827902 106.404451,241.023529 C106.287181,241.059841 106.168597,241.077156 106.051925,241.077156 L106.051925,241.077156 Z M75.3964416,250.674442 C75.1382328,250.674442 74.8781114,250.590636 74.6592316,250.417974 C72.6565592,248.836963 70.6957263,247.136315 68.8311239,245.362803 C68.3514054,244.906619 68.3302466,244.145632 68.7837856,243.663117 C69.2374442,243.180601 69.9939004,243.159199 70.4737384,243.615503 C72.2852645,245.338515 74.1901522,246.990707 76.1353253,248.526027 C76.6546119,248.936039 76.7452241,249.691976 76.3375889,250.214291 C76.1018538,250.516569 75.7508811,250.674442 75.3964416,250.674442 L75.3964416,250.674442 Z M132.748564,254.686427 C132.458677,254.686427 132.168073,254.581099 131.938315,254.367676 C131.452978,253.917384 131.422614,253.156758 131.870296,252.668591 C132.61683,251.85482 133.309093,250.987903 133.927837,250.092129 C134.659668,249.032831 135.303397,247.88083 135.841213,246.668228 C136.110419,246.061747 136.817266,245.789768 137.420112,246.060184 C138.022957,246.33072 138.293599,247.041688 138.024631,247.648049 C137.425969,248.997721 136.708125,250.281744 135.8913,251.464286 C135.210035,252.450479 134.448319,253.404449 133.627431,254.299381 C133.391815,254.55621 133.070608,254.686427 132.748564,254.686427 L132.748564,254.686427 Z M115.172553,256.185316 C114.849195,256.185316 114.527151,256.054256 114.291416,255.795744 C112.506906,253.83959 110.891666,251.772457 109.490405,249.651937 C109.124968,249.098842 109.274394,248.352644 109.824164,247.984956 C110.373934,247.617268 111.116045,247.767806 111.481482,248.320781 C112.814246,250.337535 114.352262,252.305592 116.053093,254.170005 C116.49934,254.659254 116.466825,255.41988 115.980412,255.868849 C115.750774,256.080588 115.461245,256.185316 115.172553,256.185316 L115.172553,256.185316 Z M90.4557535,259.961875 C90.2925799,259.961875 90.1267764,259.927968 89.9682648,259.856667 C87.6984181,258.835003 85.3941435,257.627091 83.1193956,256.266356 C82.5519339,255.927044 82.3654497,255.189143 82.7029143,254.618373 C83.0404984,254.047482 83.7738832,253.860271 84.3413449,254.199583 C86.5371957,255.512944 88.7588674,256.677691 90.9447962,257.661599 C91.547403,257.932857 91.8173269,258.644185 91.5476421,259.250306 C91.3489648,259.69687 90.9127592,259.961875 90.4557535,259.961875 L90.4557535,259.961875 Z M107.525508,264.293092 C107.506501,264.293092 107.487255,264.292611 107.467889,264.29177 C104.940073,264.171171 102.343998,263.805046 99.7516295,263.203615 C99.1082592,263.054279 98.7070792,262.408721 98.8554297,261.761719 C99.0037802,261.114718 99.6460747,260.710718 100.288967,260.860294 C102.742309,261.429501 105.195891,261.775907 107.581334,261.889653 C108.240722,261.921275 108.749968,262.48435 108.718648,263.147704 C108.688284,263.791579 108.159674,264.293092 107.525508,264.293092 L107.525508,264.293092 Z M128.337856,268.05895 C128.088851,268.05895 127.837696,267.980916 127.62288,267.819196 C125.578249,266.28111 123.5696,264.647675 121.652877,262.9641 C121.445473,262.78218 121.315771,262.543989 121.266401,262.291969 C120.152995,262.686471 119.010779,263.026624 117.846569,263.310146 C117.20523,263.466335 116.558752,263.07003 116.403349,262.424592 C116.247945,261.779154 116.642192,261.129387 117.283888,260.973077 C119.696587,260.385354 122.003491,259.538276 124.140528,258.455411 C124.729866,258.15674 125.448786,258.395172 125.745846,258.988307 C126.042905,259.581441 125.805736,260.304313 125.216159,260.603105 C124.658858,260.885424 124.091038,261.152833 123.513654,261.405093 C125.298045,262.959772 127.160495,264.46852 129.054744,265.893582 C129.583474,266.29121 129.691539,267.044742 129.296217,267.576555 C129.061438,267.8923 128.701858,268.05895 128.337856,268.05895 L128.337856,268.05895 Z M143.371944,277.42562 C143.190959,277.42562 143.007224,277.384138 142.834607,277.296605 C140.560457,276.14316 138.299456,274.887273 136.114723,273.563812 C135.549174,273.221134 135.366754,272.482391 135.707326,271.913424 C136.047899,271.344697 136.782599,271.160853 137.348148,271.503772 C139.481957,272.796332 141.69012,274.022881 143.911075,275.149392 C144.500652,275.448424 144.737463,276.171416 144.440283,276.76431 C144.23001,277.183581 143.808987,277.42562 143.371944,277.42562 L143.371944,277.42562 Z M159.804784,284 C159.691817,284 159.577058,283.983768 159.463255,283.94974 C157.025692,283.219895 154.579761,282.383278 152.193481,281.462976 C151.577008,281.225265 151.26895,280.529928 151.505283,279.90986 C151.741616,279.289912 152.433042,278.979698 153.049396,279.217649 C155.378654,280.115948 157.766129,280.932605 160.145356,281.644776 C160.778087,281.834271 161.138384,282.503757 160.949988,283.140177 C160.79554,283.662251 160.319886,284 159.804784,284 L159.804784,284 Z" id="Fill-26" fill="#E7DDFF" mask="url(#mask-2)"></path>
                <path d="M322.796275,211.936777 C322.143286,211.936777 321.607371,211.415274 321.593775,210.760573 C321.54372,208.343548 321.202727,205.901541 320.5803,203.502412 C320.413654,202.860322 320.800129,202.205021 321.443492,202.038673 C322.086735,201.872326 322.743333,202.257988 322.909859,202.900318 C323.579092,205.479727 323.945834,208.107539 323.999738,210.710849 C324.013455,211.373958 323.485962,211.922845 322.821663,211.936537 C322.813241,211.936657 322.804577,211.936777 322.796275,211.936777 M318.400542,228.959483 C318.199484,228.959483 317.995778,228.909279 317.808316,228.803225 C317.230167,228.476054 317.027184,227.743164 317.354701,227.166052 C318.572362,225.021789 319.547574,222.750814 320.253505,220.416302 C320.445419,219.781298 321.116456,219.421459 321.753081,219.61351 C322.389225,219.8052 322.749229,220.475394 322.557315,221.110398 C321.799887,223.615341 320.753805,226.051343 319.448429,228.350423 C319.226915,228.740529 318.819625,228.959483 318.400542,228.959483 M305.188195,240.109338 C304.664794,240.109338 304.183023,239.765593 304.032019,239.238205 C303.849249,238.600439 304.219,237.935529 304.858031,237.753207 C306.824338,237.191949 308.536042,236.465785 310.091328,235.532917 C310.456746,235.313842 310.854291,235.031111 311.272892,234.692891 C311.789195,234.275401 312.546744,234.354671 312.965104,234.870409 C313.383345,235.385906 313.303571,236.142217 312.787148,236.559708 C312.281915,236.96807 311.791842,237.315539 311.330767,237.592024 C309.592231,238.634669 307.69138,239.442867 305.519563,240.062737 C305.409107,240.094205 305.297689,240.109338 305.188195,240.109338 M287.497093,241.877787 C286.862754,241.877787 286.331893,241.382468 286.296638,240.74254 C286.260421,240.080152 286.768662,239.513729 287.43224,239.477457 C288.841935,239.400229 290.265709,239.351826 291.642676,239.304864 L292.240798,239.284446 C293.375076,239.245291 294.246691,239.208418 295.066326,239.1647 C295.728941,239.128908 296.296621,239.637559 296.331996,240.299947 C296.367491,240.962335 295.858287,241.528037 295.19471,241.563348 C294.359312,241.607908 293.473981,241.645501 292.323821,241.685256 L291.724736,241.705675 C290.360041,241.752156 288.948781,241.800198 287.564113,241.875986 C287.541613,241.877187 287.519353,241.877787 287.497093,241.877787 M270.629477,246.709075 C270.267066,246.709075 269.908746,246.54621 269.671952,246.236335 C269.268873,245.708947 269.370545,244.955278 269.89876,244.553041 C270.915603,243.778594 271.99706,243.10852 273.112808,242.561434 C274.346953,241.956337 275.691073,241.438077 277.107627,241.020947 C277.745696,240.833581 278.414207,241.197023 278.60215,241.833228 C278.790214,242.469552 278.425758,243.137345 277.788411,243.325072 C276.502045,243.703648 275.286069,244.172304 274.17381,244.717587 C273.198237,245.195852 272.25094,245.783053 271.358389,246.462736 C271.140485,246.628723 270.883958,246.709075 270.629477,246.709075 M259.120532,248.109638 C258.576315,248.109638 258.082873,247.738388 257.95112,247.186739 C257.797108,246.541406 258.196217,245.893791 258.842588,245.739935 C259.297165,245.631839 259.75451,245.530469 260.201628,245.438827 C262.374287,244.992511 264.545382,244.744852 266.654511,244.702934 C267.322059,244.694167 267.868322,245.21663 267.881557,245.879739 C267.894793,246.542967 267.366939,247.091254 266.702519,247.104586 C264.739943,247.14362 262.715882,247.374826 260.686527,247.791595 C260.263353,247.878432 259.830674,247.974398 259.400522,248.076608 C259.306791,248.098948 259.21294,248.109638 259.120532,248.109638 M282.857828,253.12673 C282.519121,253.12673 282.18258,252.984884 281.944462,252.708279 C281.526342,252.222327 281.07369,251.772888 280.599259,251.372333 C279.314578,250.288131 277.830042,249.394538 276.186921,248.716897 C275.572797,248.463472 275.280654,247.761088 275.534414,247.148064 C275.788173,246.53504 276.491818,246.243782 277.106063,246.496726 C278.979721,247.269732 280.677709,248.29292 282.153101,249.537945 C282.724752,250.020653 283.268729,250.560653 283.769991,251.14317 C284.203031,251.646176 284.145276,252.404649 283.641246,252.836793 C283.414198,253.031365 283.135291,253.12673 282.857828,253.12673 M242.854287,255.181994 C242.459028,255.181994 242.072072,254.987781 241.841895,254.631785 C241.481771,254.074251 241.642641,253.330911 242.201057,252.971312 C244.396337,251.558258 246.691243,250.289572 249.022246,249.200686 C249.624339,248.919877 250.340377,249.178826 250.622051,249.779479 C250.903725,250.380253 250.64419,251.095247 250.042218,251.376417 C247.809037,252.419662 245.609787,253.635501 243.50535,254.990184 C243.30369,255.119899 243.077605,255.181994 242.854287,255.181994 M263.354191,262.131241 C262.748489,262.131241 262.227253,261.676037 262.159632,261.061211 C262.099952,260.51917 262.069751,259.964638 262.069751,259.412988 C262.069751,257.281217 262.507243,255.128787 263.369713,253.015751 C263.620585,252.401406 264.322786,252.106064 264.938114,252.356606 C265.553562,252.606909 265.849073,253.307851 265.598322,253.922076 C264.853647,255.746134 264.476196,257.593494 264.476196,259.412988 C264.476196,259.8772 264.501584,260.343574 264.551759,260.798898 C264.624193,261.458163 264.147596,262.05149 263.487027,262.123914 C263.442508,262.128839 263.398109,262.131241 263.354191,262.131241 M229.677676,267.046723 C229.418622,267.046723 229.157763,266.963609 228.937934,266.792337 C228.414172,266.383975 228.321162,265.629225 228.730138,265.106401 C230.293124,263.108428 232.06872,261.17267 234.007472,259.352815 C234.491649,258.898452 235.253289,258.921752 235.708348,259.405061 C236.163527,259.88825 236.140184,260.648405 235.656007,261.102888 C233.806534,262.838909 232.114442,264.683265 230.626778,266.584793 C230.389622,266.888062 230.035394,267.046723 229.677676,267.046723 M284.313848,269.613641 C284.062374,269.613641 283.808855,269.535211 283.592275,269.372827 C283.060932,268.974554 282.953605,268.221605 283.352713,267.691215 C284.589025,266.047796 285.242495,263.941247 285.242495,261.599289 C285.242495,261.489631 285.241051,261.379974 285.238163,261.270076 C285.220717,260.607088 285.744961,260.055318 286.40938,260.037903 C287.068866,260.017004 287.626319,260.543912 287.643887,261.20702 C287.647256,261.337817 287.64894,261.468493 287.64894,261.599289 C287.64894,264.465752 286.828703,267.070984 285.276907,269.133695 C285.040474,269.447894 284.679387,269.613641 284.313848,269.613641 M275.345387,273.383786 C275.310133,273.383786 275.274638,273.382345 275.238902,273.379102 C272.551866,273.144054 269.83523,272.096604 267.589415,270.429525 C267.056146,270.033653 266.94533,269.281186 267.341912,268.748993 C267.738614,268.216561 268.492313,268.106183 269.025461,268.501934 C270.918491,269.907181 273.199801,270.789484 275.448985,270.986219 C276.110878,271.04411 276.600589,271.626747 276.542594,272.287574 C276.487727,272.912728 275.9624,273.383786 275.345387,273.383786 M222.204821,283 C222.135515,283 222.065247,282.993995 221.994618,282.981624 C221.340185,282.866441 220.903175,282.243449 221.018444,281.590309 C221.463155,279.071193 222.240316,276.532981 223.32815,274.046414 C223.593942,273.438315 224.303482,273.160628 224.912313,273.426424 C225.521384,273.69186 225.799449,274.399768 225.533416,275.007748 C224.521746,277.32028 223.800054,279.675089 223.388431,282.007079 C223.285556,282.589836 222.777796,283 222.204821,283" id="Fill-27" fill="#E7DDFF" mask="url(#mask-2)"></path>
                <path d="M308,198.500061 C308,212.583299 296.583177,224 282.499939,224 C268.416701,224 257,212.583299 257,198.500061 C257,184.416823 268.416701,173 282.499939,173 C296.583177,173 308,184.416823 308,198.500061" id="Fill-28" fill="#08C0BC" mask="url(#mask-2)"></path>
                <path d="M291.474895,201.16945 L291.474895,195.555539 C291.474895,190.278147 287.009067,186 281.500433,186 L281.500062,186 L281.499814,186 C275.990933,186 271.525353,190.278147 271.525353,195.555539 L271.525353,201.16945 C271.525353,204.222662 270.651934,205.389041 269,208 L294,208 C292.348313,205.389041 291.474895,204.222662 291.474895,201.16945" id="Fill-29" fill="#FEFEFE" mask="url(#mask-2)"></path>
                <path d="M281.5,214 L281.5,214 C279.567046,214 278,212.209091 278,210 L285,210 C285,212.209091 283.433069,214 281.5,214" id="Fill-30" fill="#FEFEFE" mask="url(#mask-2)"></path>
                <path d="M281.999939,187.802284 C281.004617,187.802284 280.197619,186.995302 280.197619,186 C280.197619,185.004576 281.004617,184.197716 281.999939,184.197716 C282.995383,184.197716 283.802381,185.004576 283.802381,186 C283.802381,186.995302 282.995383,187.802284 281.999939,187.802284 M281.999939,183 C280.343053,183 279,184.343148 279,186 C279,187.656852 280.343053,189 281.999939,189 C283.656947,189 285,187.656852 285,186 C285,184.343148 283.656947,183 281.999939,183" id="Fill-31" fill="#FEFEFE" mask="url(#mask-2)"></path>
                <path d="M281.5,170.380005 C273.988853,170.380005 266.927287,173.305031 261.616208,178.616131 C256.30501,183.927349 253.379996,190.988943 253.379996,198.500119 C253.379996,206.011295 256.30501,213.07277 261.616208,218.383988 C266.927287,223.694969 273.988853,226.619995 281.5,226.619995 C289.011147,226.619995 296.072713,223.694969 301.383792,218.383988 C306.69499,213.07277 309.620004,206.011295 309.620004,198.500119 C309.620004,190.988943 306.69499,183.927349 301.383792,178.616131 C296.072713,173.305031 289.011147,170.380005 281.5,170.380005 M281.5,229 C273.353156,229 265.693974,225.827454 259.933313,220.06689 C254.172534,214.306207 251,206.646995 251,198.500119 C251,190.353243 254.172534,182.694031 259.933313,176.933229 C265.693974,171.172546 273.353156,168 281.5,168 C289.646844,168 297.306026,171.172546 303.066687,176.933229 C308.827466,182.694031 312,190.353243 312,198.500119 C312,206.646995 308.827466,214.306207 303.066687,220.06689 C297.306026,225.827454 289.646844,229 281.5,229" id="Fill-32" fill="#08C0BC" mask="url(#mask-2)"></path>
                <path d="M283.169208,96 C282.869906,96 282.570837,95.8858885 282.342502,95.6575486 C281.885833,95.2009856 281.885833,94.4606638 282.342502,94.0041009 L290.004057,86.3423784 C290.460961,85.8858154 291.201032,85.8859323 291.657585,86.3423784 C292.114138,86.7989413 292.114138,87.5392631 291.657585,87.995943 L283.995914,95.6575486 C283.767579,95.8857716 283.468394,96 283.169208,96" id="Fill-33" fill="#262F5F" mask="url(#mask-2)"></path>
                <path d="M290.481305,85.6072589 C290.247893,85.6072589 290.014481,85.6960868 289.836597,85.8737426 L281.874352,93.8366582 C281.702301,94.0088458 281.607527,94.2376596 281.607527,94.4810553 C281.607527,94.7245725 281.702301,94.9533864 281.874352,95.1254524 C282.046525,95.29764 282.275442,95.3924221 282.518817,95.3924221 C282.762192,95.3924221 282.990987,95.29764 283.16316,95.1255739 L291.125648,87.1625368 C291.297699,86.9903492 291.392473,86.7615354 291.392473,86.5181397 C291.392473,86.2746224 291.297699,86.0458086 291.125648,85.8737426 C290.948007,85.6960868 290.714717,85.6072589 290.481305,85.6072589 M282.518817,96 C282.11311,96 281.731705,95.8420298 281.444831,95.5551315 C281.157957,95.2682332 281,94.8867958 281,94.4810553 C281,94.0754363 281.157957,93.6938774 281.444831,93.4071007 L289.407198,85.4440635 C289.999779,84.8517966 290.963559,84.8521611 291.555169,85.4440635 C291.842043,85.7309618 292,86.1123992 292,86.5181397 C292,86.9237587 291.842043,87.3053176 291.555169,87.5920943 L283.592802,95.5551315 C283.305685,95.8421513 282.924402,96 282.518817,96" id="Fill-34" fill="#262F5F" mask="url(#mask-2)"></path>
                <path d="M299.839121,107 C299.781706,107 299.723594,106.995932 299.665016,106.987687 L286.98968,105.186627 C286.354862,105.096371 285.917741,104.536584 286.013045,103.93612 C286.108233,103.335657 286.699816,102.922193 287.334984,103.012339 L300.01032,104.813289 C300.645138,104.903546 301.082259,105.463333 300.986955,106.063796 C300.900484,106.608852 300.404553,107 299.839121,107" id="Fill-35" fill="#262F5F" mask="url(#mask-2)"></path>
                <path d="M286.491603,103.604282 C286.056217,103.604282 285.673345,103.927211 285.606867,104.375783 C285.533587,104.869901 285.870987,105.332246 286.359006,105.406424 L299.374994,107.385675 C299.419631,107.39244 299.464864,107.395944 299.509501,107.395944 C299.94799,107.395944 300.327998,107.064196 300.393163,106.624322 C300.466443,106.130204 300.129043,105.66786 299.641024,105.593561 L286.624916,103.61431 C286.58016,103.607544 286.535524,103.604282 286.491603,103.604282 M299.509501,108 C299.435266,108 299.360195,107.994322 299.286437,107.983086 L286.27033,106.003836 C285.456845,105.880125 284.894472,105.10947 285.016685,104.286141 C285.13866,103.462933 285.899392,102.892704 286.713473,103.017019 L299.729581,104.99627 C300.543065,105.11998 301.105439,105.890515 300.983345,106.713964 C300.874617,107.447168 300.240992,108 299.509501,108" id="Fill-36" fill="#262F5F" mask="url(#mask-2)"></path>
                <path d="M273.899144,92 C273.364201,92 272.895218,91.5864753 272.813426,91.0102371 L271.012362,78.3350895 C270.922105,77.7002745 271.33579,77.1084623 271.936255,77.0130425 C272.535731,76.9177388 273.096399,77.3549732 273.186656,77.9897882 L274.987611,90.6649359 C275.077977,91.2997509 274.664292,91.8915631 274.063827,91.9869829 C274.00853,91.9956997 273.953452,92 273.899144,92" id="Fill-37" fill="#262F5F" mask="url(#mask-2)"></path>
                <path d="M271.512071,77.5968866 C271.466889,77.5968866 271.421344,77.6002284 271.37592,77.6069118 C271.136479,77.6424774 270.925549,77.768031 270.781667,77.9602999 C270.637905,78.1525688 270.578468,78.3886383 270.614468,78.6250657 L272.593663,91.6408702 C272.659625,92.0755339 273.044156,92.4032623 273.488004,92.4032623 C273.533307,92.4032623 273.579093,92.3999205 273.624034,92.3932371 C273.863596,92.3576715 274.074526,92.2321179 274.218287,92.039849 C274.36217,91.8475801 274.421486,91.6115107 274.385485,91.3750832 L272.40629,78.3592788 C272.370411,78.1228513 272.243441,77.9144705 272.048458,77.7723275 C271.890803,77.6572765 271.704276,77.5968866 271.512071,77.5968866 M273.488004,93 C272.747693,93 272.106325,92.4538656 271.996269,91.7295454 L270.017074,78.713741 C269.957153,78.3197747 270.056095,77.9261665 270.295898,77.6057184 C270.53546,77.2852702 270.887132,77.076054 271.28616,77.0168576 C271.684343,76.9576612 272.082767,77.0555262 272.407257,77.2921924 C272.732109,77.5290972 272.943885,77.8765179 273.003806,78.2706035 L274.98288,91.286408 C275.042922,91.6803742 274.943859,92.0739824 274.704177,92.3944306 C274.464494,92.7149981 274.112822,92.924095 273.713915,92.9832913 C273.639255,92.9943907 273.563267,93 273.488004,93" id="Fill-38" fill="#262F5F" mask="url(#mask-2)"></path>
            </g>
        </g>
    </g>
</svg>