<?xml version="1.0" encoding="UTF-8"?>
<svg width="410px" height="306px" viewBox="0 0 410 306" version="1.1" xmlns="http://www.w3.org/2000/svg" xmlns:xlink="http://www.w3.org/1999/xlink">
    <title>B5CF9B63-B923-4E24-A1D7-08C66CA47078</title>
    <g id="Desktop" stroke="none" stroke-width="1" fill="none" fill-rule="evenodd">
        <g id="Afiliados-Pública" transform="translate(-754.000000, -2099.000000)">
            <g id="Group-13" transform="translate(754.000000, 2099.000000)">
                <rect id="Rectangle" fill-opacity="0.3" fill="#F18E15" x="0" y="0" width="410" height="306" rx="68"></rect>
                <path d="M47.5505453,14.6300693 C47.3297529,14.6300693 47.1065696,14.5686276 46.9068164,14.4399728 C46.3508307,14.0817835 46.188972,13.3381107 46.545085,12.7788832 C47.9306861,10.6032947 49.4282972,8.47784545 50.996318,6.46157242 C51.4031165,5.93865684 52.1543129,5.84619372 52.6743167,6.25536405 C53.1943206,6.66441413 53.2861282,7.42011071 52.8794493,7.94314653 C51.3574518,9.90038264 49.9035927,11.963789 48.5582769,14.0761323 C48.330073,14.4344419 47.9443138,14.6300693 47.5505453,14.6300693 L47.5505453,14.6300693 Z M39.6511487,30.5325225 C39.5116442,30.5325225 39.3698685,30.5078737 39.2316789,30.4556904 C38.6135318,30.2225487 38.3002145,29.5296164 38.5320048,28.9077448 C39.430954,26.4958884 40.4465753,24.1013462 41.5505375,21.7904898 C41.8364799,21.1920647 42.550499,20.9398051 43.1458138,21.2276552 C43.7407699,21.5152648 43.9914476,22.2335673 43.7053857,22.8321126 C42.6321456,25.0786417 41.6447359,27.4068124 40.7706513,29.7519367 C40.5907419,30.2346927 40.1351707,30.5325225 39.6511487,30.5325225 L39.6511487,30.5325225 Z M35.1835385,47.7335475 C35.1231702,47.7335475 35.0619652,47.7289784 35.0004015,47.7194796 C34.3479461,47.6185998 33.9002646,47.004664 34.0005596,46.3484043 C34.3885901,43.810899 34.8944881,41.2582438 35.5045064,38.7610183 C35.6620616,38.1161812 36.3093768,37.7221609 36.9507149,37.880274 C37.5918139,38.0387479 37.9837892,38.6899575 37.826234,39.3347946 C37.2329514,41.7634843 36.7409202,44.246161 36.3636484,46.713808 C36.2727972,47.3082652 35.763552,47.7335475 35.1835385,47.7335475 L35.1835385,47.7335475 Z M34.3338402,65.490313 C33.7055321,65.490313 33.1787144,64.9970962 33.1416567,64.3579104 C33.0475778,62.7360184 32.9998809,61.0859906 33.0000002,59.4537582 C33.0000002,58.5133758 33.0157799,57.5592864 33.0469801,56.6181826 C33.0689757,55.9544682 33.623766,55.4344383 34.2814812,55.4565621 C34.9414677,55.4785657 35.4584831,56.0345468 35.4364875,56.6982612 C35.4061241,57.6127923 35.3908228,58.5398282 35.3908228,59.4537582 C35.3907033,61.0394585 35.4370852,62.6424731 35.5284146,64.2179532 C35.5667873,64.8809462 35.0636388,65.4495522 34.4046086,65.4882689 C34.3809394,65.4895915 34.3573898,65.490313 34.3338402,65.490313 L34.3338402,65.490313 Z M37.2875817,83.014538 C36.7669802,83.014538 36.2880984,82.669695 36.138433,82.141008 C35.4355312,79.6571289 34.8432049,77.1214272 34.3777118,74.6044827 C34.2569753,73.9515897 34.6852911,73.3238265 35.3343994,73.2025062 C35.9830295,73.0805847 36.6075123,73.5117586 36.7282488,74.1646516 C37.1801143,76.6083712 37.7553461,79.0704872 38.4379259,81.4827043 C38.6186721,82.121289 38.2504854,82.7865665 37.615483,82.9682463 C37.5061029,82.9995082 37.3960055,83.014538 37.2875817,83.014538 L37.2875817,83.014538 Z M122.926241,98.8008412 C122.672216,98.8008412 122.416398,98.7196804 122.199311,98.5521887 C120.403326,97.1658432 118.197672,96.1601716 115.820956,95.6439893 C115.175553,95.5039119 114.765408,94.8641249 114.904673,94.2150795 C115.044058,93.5660341 115.679778,93.1526555 116.325419,93.2934543 C119.045697,93.8841842 121.580088,95.042919 123.654964,96.644611 C124.178673,97.0488515 124.277414,97.8035862 123.875397,98.3303494 C123.640021,98.6388804 123.285103,98.8008412 122.926241,98.8008412 L122.926241,98.8008412 Z M43.8960538,99.503152 C43.4676184,99.503152 43.0534085,99.270852 42.8388322,98.8637257 C41.6395957,96.5882193 40.5301345,94.2362414 39.5411709,91.8732017 C39.2849943,91.2610694 39.5706975,90.5561133 40.1791618,90.298443 C40.7876261,90.0407727 41.4886152,90.3281418 41.7447918,90.9401538 C42.7062611,93.2379043 43.7850001,95.5247131 44.9512433,97.737335 C45.2603766,98.324097 45.0382692,99.0518983 44.4549085,99.3628341 C44.2764336,99.4580627 44.0848092,99.503152 43.8960538,99.503152 L43.8960538,99.503152 Z M99.777223,100.2948 C99.4912806,100.2948 99.204621,100.192237 98.9758193,99.984345 C98.4861789,99.538983 98.4480453,98.7785971 98.8909451,98.2859815 C100.658361,96.3197276 103.014277,94.792463 105.703833,93.8693949 C106.328793,93.6548901 107.008026,93.9904747 107.221287,94.6189594 C107.434429,95.2473238 107.10079,95.9307572 106.475949,96.1451418 C104.169761,96.9367896 102.160156,98.2347601 100.664218,99.8988557 C100.428363,100.161335 100.103331,100.2948 99.777223,100.2948 L99.777223,100.2948 Z M53.73632,114.272 C53.393237,114.272 53.0527839,114.124348 52.8164511,113.838301 C51.1854321,111.865074 49.6206389,109.791687 48.1657039,107.675857 C47.7901057,107.129736 47.9259044,106.380652 48.4688602,106.002984 C49.0118159,105.625437 49.7565571,105.761787 50.1320358,106.307908 C51.547044,108.365663 53.0688024,110.382057 54.654874,112.300937 C55.0768541,112.811708 55.0075203,113.569689 54.4998291,113.99425 C54.2765263,114.18086 54.0056462,114.272 53.73632,114.272 L53.73632,114.272 Z M129.993034,114.472678 C129.33496,114.472678 128.800372,113.937618 128.797742,113.275106 C128.78782,110.789544 128.379229,108.407386 127.583324,106.194524 C127.358826,105.570127 127.680033,104.880802 128.30081,104.654995 C128.921587,104.429308 129.607035,104.752147 129.831653,105.376664 C130.72092,107.849241 131.177447,110.503497 131.188574,113.265487 C131.191194,113.929442 130.65816,114.470032 129.997935,114.472678 L129.993034,114.472678 Z M97.0519246,117.077156 C96.5411254,117.077156 96.0683402,116.745178 95.9099483,116.228635 C95.1901912,113.879423 94.8251126,111.589849 94.8252321,109.423639 C94.8252321,109.039838 94.8367081,108.654235 94.8595405,108.277288 C94.8995867,107.614536 95.465853,107.110738 96.1252418,107.150056 C96.7841525,107.190336 97.2859861,107.760264 97.2459398,108.423137 C97.226096,108.751748 97.2160545,109.088415 97.2160545,109.423639 C97.215935,111.349493 97.5452708,113.400875 98.1947376,115.520312 C98.389231,116.154809 98.0353893,116.827902 97.4044513,117.023529 C97.2871815,117.059841 97.1685967,117.077156 97.0519246,117.077156 L97.0519246,117.077156 Z M66.3964416,126.674442 C66.1382328,126.674442 65.8781114,126.590636 65.6592316,126.417974 C63.6565592,124.836963 61.6957263,123.136315 59.8311239,121.362803 C59.3514054,120.906619 59.3302466,120.145632 59.7837856,119.663117 C60.2374442,119.180601 60.9939004,119.159199 61.4737384,119.615503 C63.2852645,121.338515 65.1901522,122.990707 67.1353253,124.526027 C67.6546119,124.936039 67.7452241,125.691976 67.3375889,126.214291 C67.1018538,126.516569 66.7508811,126.674442 66.3964416,126.674442 L66.3964416,126.674442 Z M123.748564,130.686427 C123.458677,130.686427 123.168073,130.581099 122.938315,130.367676 C122.452978,129.917384 122.422614,129.156758 122.870296,128.668591 C123.61683,127.85482 124.309093,126.987903 124.927837,126.092129 C125.659668,125.032831 126.303397,123.88083 126.841213,122.668228 C127.110419,122.061747 127.817266,121.789768 128.420112,122.060184 C129.022957,122.33072 129.293599,123.041688 129.024631,123.648049 C128.425969,124.997721 127.708125,126.281744 126.8913,127.464286 C126.210035,128.450479 125.448319,129.404449 124.627431,130.299381 C124.391815,130.55621 124.070608,130.686427 123.748564,130.686427 L123.748564,130.686427 Z M106.172553,132.185316 C105.849195,132.185316 105.527151,132.054256 105.291416,131.795744 C103.506906,129.83959 101.891666,127.772457 100.490405,125.651937 C100.124968,125.098842 100.274394,124.352644 100.824164,123.984956 C101.373934,123.617268 102.116045,123.767806 102.481482,124.320781 C103.814246,126.337535 105.352262,128.305592 107.053093,130.170005 C107.49934,130.659254 107.466825,131.41988 106.980412,131.868849 C106.750774,132.080588 106.461245,132.185316 106.172553,132.185316 L106.172553,132.185316 Z M81.4557535,135.961875 C81.2925799,135.961875 81.1267764,135.927968 80.9682648,135.856667 C78.6984181,134.835003 76.3941435,133.627091 74.1193956,132.266356 C73.5519339,131.927044 73.3654497,131.189143 73.7029143,130.618373 C74.0404984,130.047482 74.7738832,129.860271 75.3413449,130.199583 C77.5371957,131.512944 79.7588674,132.677691 81.9447962,133.661599 C82.547403,133.932857 82.8173269,134.644185 82.5476421,135.250306 C82.3489648,135.69687 81.9127592,135.961875 81.4557535,135.961875 L81.4557535,135.961875 Z M98.5255079,140.293092 C98.5065009,140.293092 98.4872548,140.292611 98.4678891,140.29177 C95.9400726,140.171171 93.3439982,139.805046 90.7516295,139.203615 C90.1082592,139.054279 89.7070792,138.408721 89.8554297,137.761719 C90.0037802,137.114718 90.6460747,136.710718 91.2889668,136.860294 C93.7423092,137.429501 96.1958906,137.775907 98.5813336,137.889653 C99.2407224,137.921275 99.7499676,138.48435 99.7186478,139.147704 C99.6882844,139.791579 99.1596735,140.293092 98.5255079,140.293092 L98.5255079,140.293092 Z M119.337856,144.05895 C119.088851,144.05895 118.837696,143.980916 118.62288,143.819196 C116.578249,142.28111 114.5696,140.647675 112.652877,138.9641 C112.445473,138.78218 112.315771,138.543989 112.266401,138.291969 C111.152995,138.686471 110.010779,139.026624 108.846569,139.310146 C108.20523,139.466335 107.558752,139.07003 107.403349,138.424592 C107.247945,137.779154 107.642192,137.129387 108.283888,136.973077 C110.696587,136.385354 113.003491,135.538276 115.140528,134.455411 C115.729866,134.15674 116.448786,134.395172 116.745846,134.988307 C117.042905,135.581441 116.805736,136.304313 116.216159,136.603105 C115.658858,136.885424 115.091038,137.152833 114.513654,137.405093 C116.298045,138.959772 118.160495,140.46852 120.054744,141.893582 C120.583474,142.29121 120.691539,143.044742 120.296217,143.576555 C120.061438,143.8923 119.701858,144.05895 119.337856,144.05895 L119.337856,144.05895 Z M134.371944,153.42562 C134.190959,153.42562 134.007224,153.384138 133.834607,153.296605 C131.560457,152.14316 129.299456,150.887273 127.114723,149.563812 C126.549174,149.221134 126.366754,148.482391 126.707326,147.913424 C127.047899,147.344697 127.782599,147.160853 128.348148,147.503772 C130.481957,148.796332 132.69012,150.022881 134.911075,151.149392 C135.500652,151.448424 135.737463,152.171416 135.440283,152.76431 C135.23001,153.183581 134.808987,153.42562 134.371944,153.42562 L134.371944,153.42562 Z M150.804784,160 C150.691817,160 150.577058,159.983768 150.463255,159.94974 C148.025692,159.219895 145.579761,158.383278 143.193481,157.462976 C142.577008,157.225265 142.26895,156.529928 142.505283,155.90986 C142.741616,155.289912 143.433042,154.979698 144.049396,155.217649 C146.378654,156.115948 148.766129,156.932605 151.145356,157.644776 C151.778087,157.834271 152.138384,158.503757 151.949988,159.140177 C151.79554,159.662251 151.319886,160 150.804784,160 L150.804784,160 Z" id="Fill-26" fill="#492F82"></path>
                <rect id="Rectangle" fill="#F0EDFA" x="63" y="56" width="286" height="194" rx="5"></rect>
                <rect id="Rectangle" fill="#8064BC" x="78" y="72" width="286" height="11" rx="3"></rect>
                <rect id="Rectangle" fill-opacity="0.4" fill="#8064BC" x="78" y="96" width="81" height="62" rx="5"></rect>
                <rect id="Rectangle" fill-opacity="0.4" fill="#8064BC" x="78" y="171" width="81" height="60" rx="5"></rect>
                <rect id="Rectangle" fill-opacity="0.4" fill="#8064BC" x="175" y="96" width="96" height="8" rx="4"></rect>
                <rect id="Rectangle" fill-opacity="0.4" fill="#2C2C2C" x="175" y="178" width="150" height="5" rx="2.5"></rect>
                <rect id="Rectangle" fill-opacity="0.4" fill="#2C2C2C" x="175" y="190" width="150" height="5" rx="2.5"></rect>
                <rect id="Rectangle" fill-opacity="0.4" fill="#2C2C2C" x="175" y="202" width="150" height="5" rx="2.5"></rect>
                <rect id="Rectangle" fill-opacity="0.4" fill="#2C2C2C" x="175" y="214" width="54" height="5" rx="2.5"></rect>
                <rect id="Rectangle" fill-opacity="0.4" fill="#2C2C2C" x="175" y="117" width="150" height="5" rx="2.5"></rect>
                <rect id="Rectangle" fill-opacity="0.4" fill="#2C2C2C" x="175" y="129" width="150" height="5" rx="2.5"></rect>
                <rect id="Rectangle" fill-opacity="0.4" fill="#2C2C2C" x="175" y="141" width="150" height="5" rx="2.5"></rect>
                <rect id="Rectangle" fill-opacity="0.4" fill="#2C2C2C" x="175" y="153" width="54" height="5" rx="2.5"></rect>
                <polygon id="Fill-23" fill="#8064BC" points="102.825 216 86.8213406 268.575682 84.2569809 277 76.9461513 270.759679 57.8375 254.452206"></polygon>
                <polygon id="Fill-24" fill="#8064BC" points="103.5875 216 47.5086384 248.7875 22 240.229699"></polygon>
                <polygon id="Fill-25" fill="#492F82" points="103.5875 216 58.5515345 254.262342 49.8957235 271.6625 47.925 248.322305"></polygon>
                <path d="M370.169208,69 C369.869906,69 369.570837,68.8858885 369.342502,68.6575486 C368.885833,68.2009856 368.885833,67.4606638 369.342502,67.0041009 L377.004057,59.3423784 C377.460961,58.8858154 378.201032,58.8859323 378.657585,59.3423784 C379.114138,59.7989413 379.114138,60.5392631 378.657585,60.995943 L370.995914,68.6575486 C370.767579,68.8857716 370.468394,69 370.169208,69" id="Fill-33" fill="#492F82"></path>
                <path d="M386.839121,80 C386.781706,80 386.723594,79.9959324 386.665016,79.9876873 L373.98968,78.1866274 C373.354862,78.0963711 372.917741,77.5365837 373.013045,76.9361204 C373.108233,76.3356572 373.699816,75.9221929 374.334984,76.0123393 L387.01032,77.8132893 C387.645138,77.9035456 388.082259,78.463333 387.986955,79.0637963 C387.900484,79.6088524 387.404553,80 386.839121,80" id="Fill-35" fill="#492F82"></path>
                <path d="M360.899144,65 C360.364201,65 359.895218,64.5864753 359.813426,64.0102371 L358.012362,51.3350895 C357.922105,50.7002745 358.33579,50.1084623 358.936255,50.0130425 C359.535731,49.9177388 360.096399,50.3549732 360.186656,50.9897882 L361.987611,63.6649359 C362.077977,64.2997509 361.664292,64.8915631 361.063827,64.9869829 C361.00853,64.9956997 360.953452,65 360.899144,65" id="Fill-37" fill="#492F82"></path>
                <path d="M369.796275,215.936777 C369.143286,215.936777 368.607371,215.415274 368.593775,214.760573 C368.54372,212.343548 368.202727,209.901541 367.5803,207.502412 C367.413654,206.860322 367.800129,206.205021 368.443492,206.038673 C369.086735,205.872326 369.743333,206.257988 369.909859,206.900318 C370.579092,209.479727 370.945834,212.107539 370.999738,214.710849 C371.013455,215.373958 370.485962,215.922845 369.821663,215.936537 C369.813241,215.936657 369.804577,215.936777 369.796275,215.936777 M365.400542,232.959483 C365.199484,232.959483 364.995778,232.909279 364.808316,232.803225 C364.230167,232.476054 364.027184,231.743164 364.354701,231.166052 C365.572362,229.021789 366.547574,226.750814 367.253505,224.416302 C367.445419,223.781298 368.116456,223.421459 368.753081,223.61351 C369.389225,223.8052 369.749229,224.475394 369.557315,225.110398 C368.799887,227.615341 367.753805,230.051343 366.448429,232.350423 C366.226915,232.740529 365.819625,232.959483 365.400542,232.959483 M352.188195,244.109338 C351.664794,244.109338 351.183023,243.765593 351.032019,243.238205 C350.849249,242.600439 351.219,241.935529 351.858031,241.753207 C353.824338,241.191949 355.536042,240.465785 357.091328,239.532917 C357.456746,239.313842 357.854291,239.031111 358.272892,238.692891 C358.789195,238.275401 359.546744,238.354671 359.965104,238.870409 C360.383345,239.385906 360.303571,240.142217 359.787148,240.559708 C359.281915,240.96807 358.791842,241.315539 358.330767,241.592024 C356.592231,242.634669 354.69138,243.442867 352.519563,244.062737 C352.409107,244.094205 352.297689,244.109338 352.188195,244.109338 M334.497093,245.877787 C333.862754,245.877787 333.331893,245.382468 333.296638,244.74254 C333.260421,244.080152 333.768662,243.513729 334.43224,243.477457 C335.841935,243.400229 337.265709,243.351826 338.642676,243.304864 L339.240798,243.284446 C340.375076,243.245291 341.246691,243.208418 342.066326,243.1647 C342.728941,243.128908 343.296621,243.637559 343.331996,244.299947 C343.367491,244.962335 342.858287,245.528037 342.19471,245.563348 C341.359312,245.607908 340.473981,245.645501 339.323821,245.685256 L338.724736,245.705675 C337.360041,245.752156 335.948781,245.800198 334.564113,245.875986 C334.541613,245.877187 334.519353,245.877787 334.497093,245.877787 M317.629477,250.709075 C317.267066,250.709075 316.908746,250.54621 316.671952,250.236335 C316.268873,249.708947 316.370545,248.955278 316.89876,248.553041 C317.915603,247.778594 318.99706,247.10852 320.112808,246.561434 C321.346953,245.956337 322.691073,245.438077 324.107627,245.020947 C324.745696,244.833581 325.414207,245.197023 325.60215,245.833228 C325.790214,246.469552 325.425758,247.137345 324.788411,247.325072 C323.502045,247.703648 322.286069,248.172304 321.17381,248.717587 C320.198237,249.195852 319.25094,249.783053 318.358389,250.462736 C318.140485,250.628723 317.883958,250.709075 317.629477,250.709075 M306.120532,252.109638 C305.576315,252.109638 305.082873,251.738388 304.95112,251.186739 C304.797108,250.541406 305.196217,249.893791 305.842588,249.739935 C306.297165,249.631839 306.75451,249.530469 307.201628,249.438827 C309.374287,248.992511 311.545382,248.744852 313.654511,248.702934 C314.322059,248.694167 314.868322,249.21663 314.881557,249.879739 C314.894793,250.542967 314.366939,251.091254 313.702519,251.104586 C311.739943,251.14362 309.715882,251.374826 307.686527,251.791595 C307.263353,251.878432 306.830674,251.974398 306.400522,252.076608 C306.306791,252.098948 306.21294,252.109638 306.120532,252.109638 M329.857828,257.12673 C329.519121,257.12673 329.18258,256.984884 328.944462,256.708279 C328.526342,256.222327 328.07369,255.772888 327.599259,255.372333 C326.314578,254.288131 324.830042,253.394538 323.186921,252.716897 C322.572797,252.463472 322.280654,251.761088 322.534414,251.148064 C322.788173,250.53504 323.491818,250.243782 324.106063,250.496726 C325.979721,251.269732 327.677709,252.29292 329.153101,253.537945 C329.724752,254.020653 330.268729,254.560653 330.769991,255.14317 C331.203031,255.646176 331.145276,256.404649 330.641246,256.836793 C330.414198,257.031365 330.135291,257.12673 329.857828,257.12673 M289.854287,259.181994 C289.459028,259.181994 289.072072,258.987781 288.841895,258.631785 C288.481771,258.074251 288.642641,257.330911 289.201057,256.971312 C291.396337,255.558258 293.691243,254.289572 296.022246,253.200686 C296.624339,252.919877 297.340377,253.178826 297.622051,253.779479 C297.903725,254.380253 297.64419,255.095247 297.042218,255.376417 C294.809037,256.419662 292.609787,257.635501 290.50535,258.990184 C290.30369,259.119899 290.077605,259.181994 289.854287,259.181994 M310.354191,266.131241 C309.748489,266.131241 309.227253,265.676037 309.159632,265.061211 C309.099952,264.51917 309.069751,263.964638 309.069751,263.412988 C309.069751,261.281217 309.507243,259.128787 310.369713,257.015751 C310.620585,256.401406 311.322786,256.106064 311.938114,256.356606 C312.553562,256.606909 312.849073,257.307851 312.598322,257.922076 C311.853647,259.746134 311.476196,261.593494 311.476196,263.412988 C311.476196,263.8772 311.501584,264.343574 311.551759,264.798898 C311.624193,265.458163 311.147596,266.05149 310.487027,266.123914 C310.442508,266.128839 310.398109,266.131241 310.354191,266.131241 M276.677676,271.046723 C276.418622,271.046723 276.157763,270.963609 275.937934,270.792337 C275.414172,270.383975 275.321162,269.629225 275.730138,269.106401 C277.293124,267.108428 279.06872,265.17267 281.007472,263.352815 C281.491649,262.898452 282.253289,262.921752 282.708348,263.405061 C283.163527,263.88825 283.140184,264.648405 282.656007,265.102888 C280.806534,266.838909 279.114442,268.683265 277.626778,270.584793 C277.389622,270.888062 277.035394,271.046723 276.677676,271.046723 M331.313848,273.613641 C331.062374,273.613641 330.808855,273.535211 330.592275,273.372827 C330.060932,272.974554 329.953605,272.221605 330.352713,271.691215 C331.589025,270.047796 332.242495,267.941247 332.242495,265.599289 C332.242495,265.489631 332.241051,265.379974 332.238163,265.270076 C332.220717,264.607088 332.744961,264.055318 333.40938,264.037903 C334.068866,264.017004 334.626319,264.543912 334.643887,265.20702 C334.647256,265.337817 334.64894,265.468493 334.64894,265.599289 C334.64894,268.465752 333.828703,271.070984 332.276907,273.133695 C332.040474,273.447894 331.679387,273.613641 331.313848,273.613641 M322.345387,277.383786 C322.310133,277.383786 322.274638,277.382345 322.238902,277.379102 C319.551866,277.144054 316.83523,276.096604 314.589415,274.429525 C314.056146,274.033653 313.94533,273.281186 314.341912,272.748993 C314.738614,272.216561 315.492313,272.106183 316.025461,272.501934 C317.918491,273.907181 320.199801,274.789484 322.448985,274.986219 C323.110878,275.04411 323.600589,275.626747 323.542594,276.287574 C323.487727,276.912728 322.9624,277.383786 322.345387,277.383786 M269.204821,287 C269.135515,287 269.065247,286.993995 268.994618,286.981624 C268.340185,286.866441 267.903175,286.243449 268.018444,285.590309 C268.463155,283.071193 269.240316,280.532981 270.32815,278.046414 C270.593942,277.438315 271.303482,277.160628 271.912313,277.426424 C272.521384,277.69186 272.799449,278.399768 272.533416,279.007748 C271.521746,281.32028 270.800054,283.675089 270.388431,286.007079 C270.285556,286.589836 269.777796,287 269.204821,287" id="Fill-27" fill="#492F82" transform="translate(319.500000, 246.500000) rotate(-19.000000) translate(-319.500000, -246.500000) "></path>
            </g>
        </g>
    </g>
</svg>